<svg width="236" height="148" viewBox="0 0 236 148" fill="none" xmlns="http://www.w3.org/2000/svg">
<g clip-path="url(#clip0_1634_24154)">
<path d="M67.9068 137.975C93.7338 138.812 121.683 134.175 145.119 138.575C162.3 141.799 181.563 146.416 199.041 142.12C217.096 137.683 239.844 122.395 234.511 100.849C232.758 93.7655 226.144 91.3357 222.239 85.8869C217.256 78.9332 218.898 72.0052 221.488 64.3365C225.777 51.6313 232.395 35.6567 226.954 22.3963C221.141 8.23434 203.524 11.9973 192.514 16.8387C177.818 23.3 164.758 37.8722 147.218 32.9978C134.785 29.5428 124.437 20.5654 113.725 13.842C97.3263 3.55276 45.3174 -6.62244 27.3637 5.54987C7.67405 18.8998 41.6354 32.4308 20.3835 44.6511C5.03967 53.4739 -3.11925 77.2217 1.11047 99.4638C6.49007 127.743 43.737 137.19 67.9068 137.975Z" fill="url(#paint0_linear_1634_24154)"/>
<path d="M18.0384 25.2514H9.33274C8.73489 25.2514 8.25 24.7665 8.25 24.1687C8.25 23.5708 8.73489 23.0859 9.33274 23.0859H18.0394C18.6373 23.0859 19.1222 23.5708 19.1222 24.1687C19.1222 24.7665 18.6373 25.2514 18.0394 25.2514H18.0384Z" fill="#BDD0FB"/>
<path d="M51.1029 25.2514H23.1179C22.52 25.2514 22.0352 24.7665 22.0352 24.1687C22.0352 23.5708 22.52 23.0859 23.1179 23.0859H51.1029C51.7008 23.0859 52.1856 23.5708 52.1856 24.1687C52.1856 24.7665 51.7008 25.2514 51.1029 25.2514Z" fill="#BDD0FB"/>
<path d="M54.4662 29.4936H26.4812C25.8833 29.4936 25.3984 29.0087 25.3984 28.4109C25.3984 27.813 25.8833 27.3281 26.4812 27.3281H54.4662C55.064 27.3281 55.5489 27.813 55.5489 28.4109C55.5489 29.0087 55.064 29.4936 54.4662 29.4936Z" fill="#BDD0FB"/>
<path d="M46.5076 37.978H26.4812C25.8833 37.978 25.3984 37.4931 25.3984 36.8952C25.3984 36.2974 25.8833 35.8125 26.4812 35.8125H46.5087C47.1065 35.8125 47.5914 36.2974 47.5914 36.8952C47.5914 37.4931 47.1065 37.978 46.5087 37.978H46.5076Z" fill="#BDD0FB"/>
<path d="M57.6068 33.7358H29.6218C29.024 33.7358 28.5391 33.2509 28.5391 32.6531C28.5391 32.0552 29.024 31.5703 29.6218 31.5703H57.6068C58.2047 31.5703 58.6895 32.0552 58.6895 32.6531C58.6895 33.2509 58.2047 33.7358 57.6068 33.7358Z" fill="#BDD0FB"/>
<path d="M150.848 26.718V30.822C150.848 31.31 151.231 31.7107 151.718 31.7342L156.851 31.975C157.371 31.9995 157.807 31.5839 157.807 31.0628V26.718C157.807 26.2139 157.397 25.8047 156.893 25.8047H151.761C151.257 25.8047 150.848 26.2139 150.848 26.718Z" fill="url(#paint1_linear_1634_24154)"/>
<path d="M185.672 61.9992V65.2602C185.672 65.6481 185.977 65.9667 186.364 65.9849L190.442 66.1767C190.855 66.1959 191.202 65.8655 191.202 65.452V61.9992C191.202 61.5985 190.877 61.2734 190.476 61.2734H186.398C185.997 61.2734 185.672 61.5985 185.672 61.9992Z" fill="url(#paint2_linear_1634_24154)"/>
<path d="M201.349 15.5979V18.4891C201.349 18.8322 201.618 19.1157 201.961 19.1317L205.577 19.3011C205.944 19.3182 206.251 19.0262 206.251 18.6585V15.5968C206.251 15.2419 205.963 14.9531 205.607 14.9531H201.991C201.636 14.9531 201.348 15.2409 201.348 15.5968L201.349 15.5979Z" fill="url(#paint3_linear_1634_24154)"/>
<path d="M193.634 85.3016V87.1783C193.634 87.401 193.809 87.5854 194.031 87.595L196.378 87.7048C196.616 87.7154 196.815 87.5257 196.815 87.2881V85.3006C196.815 85.0704 196.628 84.8828 196.397 84.8828H194.051C193.82 84.8828 193.633 85.0693 193.633 85.3006L193.634 85.3016Z" fill="#7D97F4"/>
<path d="M146.679 93.2554L146.473 105.987C146.46 106.793 147.11 107.454 147.916 107.454H162.574C163.371 107.454 164.017 106.808 164.017 106.011V93.2789C164.017 92.4817 163.371 91.8359 162.574 91.8359H148.121C147.334 91.8359 146.691 92.4679 146.679 93.2554Z" fill="url(#paint4_linear_1634_24154)"/>
<g opacity="0.73">
<path d="M155.301 105.488C155.196 105.488 155.09 105.486 154.985 105.481C151.368 105.321 148.545 102.441 148.693 99.0609C148.764 97.4165 149.519 95.9032 150.816 94.7992C152.104 93.7026 153.776 93.142 155.522 93.2177C159.139 93.3776 161.962 96.2571 161.814 99.6374C161.741 101.282 160.988 102.795 159.691 103.899C158.481 104.93 156.933 105.487 155.301 105.487V105.488ZM155.205 94.0767C153.78 94.0767 152.429 94.5615 151.376 95.4578C150.265 96.4041 149.618 97.6968 149.557 99.0982C149.431 102.002 151.883 104.478 155.023 104.616C156.549 104.682 158.009 104.195 159.13 103.241C160.242 102.294 160.889 101.002 160.95 99.6001C161.076 96.6961 158.624 94.2205 155.484 94.082C155.391 94.0777 155.298 94.0756 155.205 94.0756V94.0767Z" fill="white"/>
<path d="M156.826 99.3808C156.825 100.387 156.756 101.395 156.579 102.387C156.534 102.635 156.482 102.882 156.42 103.126C156.358 103.37 156.287 103.612 156.199 103.848C156.111 104.084 156.009 104.317 155.87 104.529C155.8 104.635 155.721 104.736 155.623 104.819C155.574 104.861 155.521 104.897 155.461 104.924C155.402 104.95 155.337 104.967 155.272 104.968C155.207 104.97 155.141 104.958 155.082 104.933C155.021 104.909 154.966 104.873 154.915 104.834C154.815 104.753 154.734 104.654 154.663 104.548C154.521 104.337 154.418 104.105 154.328 103.87C154.24 103.633 154.167 103.391 154.104 103.147C154.041 102.903 153.989 102.657 153.944 102.408C153.855 101.913 153.793 101.413 153.752 100.911C153.71 100.409 153.69 99.9062 153.688 99.4032C153.687 99.1517 153.693 98.9002 153.703 98.6487C153.712 98.3972 153.726 98.1457 153.744 97.8953C153.781 97.3933 153.837 96.8925 153.919 96.3959C153.96 96.1475 154.008 95.9003 154.066 95.6552C154.125 95.4101 154.192 95.1671 154.275 94.9295C154.316 94.8112 154.363 94.6929 154.415 94.5789C154.468 94.4638 154.526 94.3519 154.596 94.2464C154.665 94.1409 154.744 94.0396 154.843 93.9597C154.892 93.9192 154.946 93.8851 155.006 93.8616C155.066 93.8382 155.129 93.8254 155.193 93.8286C155.257 93.8307 155.321 93.8467 155.379 93.8723C155.437 93.8979 155.491 93.933 155.541 93.9735C155.64 94.0535 155.721 94.1526 155.793 94.2559C155.937 94.4638 156.046 94.6939 156.14 94.9273C156.234 95.1618 156.31 95.4016 156.377 95.6445C156.445 95.8875 156.501 96.1326 156.55 96.3799C156.744 97.3688 156.823 98.377 156.826 99.383V99.3808ZM156.751 99.3808C156.751 98.88 156.733 98.378 156.692 97.8782C156.651 97.3784 156.588 96.8807 156.497 96.3884C156.451 96.1422 156.397 95.8971 156.333 95.6552C156.269 95.4133 156.194 95.1735 156.105 94.9401C156.014 94.7078 155.909 94.4787 155.769 94.2719C155.699 94.1696 155.62 94.0716 155.525 93.9927C155.477 93.9533 155.426 93.9192 155.37 93.8936C155.315 93.868 155.254 93.852 155.193 93.8499C155.133 93.8478 155.072 93.8606 155.015 93.884C154.959 93.9075 154.907 93.9416 154.86 93.9799C154.765 94.0588 154.688 94.159 154.621 94.2634C154.554 94.3689 154.498 94.4797 154.447 94.5938C154.396 94.7078 154.353 94.825 154.312 94.9433C154.231 95.1799 154.167 95.4229 154.112 95.6669C154.056 95.911 154.012 96.1582 153.973 96.4054C153.896 96.901 153.846 97.4008 153.816 97.9006C153.784 98.4015 153.773 98.9024 153.774 99.4043C153.773 99.9052 153.789 100.407 153.826 100.907C153.863 101.407 153.921 101.905 154.006 102.399C154.049 102.646 154.099 102.891 154.16 103.134C154.22 103.377 154.29 103.618 154.376 103.852C154.462 104.087 154.564 104.317 154.7 104.524C154.769 104.626 154.847 104.724 154.942 104.801C154.989 104.839 155.041 104.872 155.096 104.895C155.152 104.917 155.212 104.93 155.271 104.928C155.331 104.927 155.39 104.911 155.445 104.885C155.499 104.86 155.55 104.824 155.596 104.785C155.689 104.705 155.766 104.606 155.833 104.503C155.967 104.294 156.067 104.062 156.153 103.828C156.238 103.592 156.306 103.352 156.366 103.109C156.425 102.866 156.474 102.619 156.517 102.373C156.602 101.88 156.659 101.381 156.696 100.881C156.734 100.382 156.751 99.8796 156.751 99.3787V99.3808Z" fill="white"/>
<path d="M155.256 105.114C155.179 105.114 155.099 105.098 155.025 105.068C154.955 105.04 154.889 105.001 154.822 104.948C154.722 104.867 154.633 104.766 154.54 104.63C154.411 104.438 154.3 104.213 154.189 103.92C154.106 103.698 154.032 103.457 153.961 103.183C153.902 102.947 153.848 102.702 153.799 102.435C153.713 101.959 153.649 101.465 153.604 100.924C153.564 100.431 153.542 99.9197 153.539 99.4039C153.538 99.1343 153.546 98.8679 153.554 98.643C153.564 98.3873 153.578 98.1315 153.596 97.8843C153.636 97.3386 153.694 96.8441 153.771 96.372C153.816 96.1024 153.865 95.8573 153.921 95.6218C153.986 95.3468 154.056 95.1039 154.135 94.8811C154.183 94.7469 154.23 94.6275 154.281 94.5177C154.342 94.3845 154.405 94.2684 154.472 94.1661C154.562 94.0275 154.651 93.9263 154.75 93.8453C154.816 93.792 154.884 93.7515 154.952 93.7238C155.031 93.6918 155.116 93.6769 155.2 93.6801C155.278 93.6822 155.359 93.7014 155.438 93.7366C155.504 93.7664 155.568 93.8059 155.632 93.8581C155.731 93.9391 155.82 94.0371 155.912 94.1703C156.044 94.36 156.159 94.5827 156.275 94.8705C156.363 95.0921 156.443 95.3319 156.518 95.6037C156.583 95.8403 156.64 96.0832 156.693 96.3497C156.877 97.2885 156.967 98.2796 156.971 99.3805C156.97 100.489 156.888 101.481 156.721 102.413C156.673 102.681 156.62 102.926 156.56 103.163C156.491 103.436 156.418 103.677 156.334 103.9C156.225 104.193 156.115 104.419 155.99 104.611C155.9 104.748 155.812 104.85 155.715 104.933C155.65 104.987 155.586 105.029 155.519 105.06C155.437 105.097 155.354 105.116 155.272 105.117C155.267 105.117 155.26 105.117 155.255 105.117L155.256 105.114ZM155.18 93.9945C155.144 93.9945 155.106 94.0019 155.069 94.0169C155.03 94.0329 154.991 94.0574 154.951 94.0904C154.879 94.1501 154.813 94.23 154.742 94.3398C154.685 94.4304 154.631 94.5316 154.579 94.651C154.535 94.7522 154.492 94.863 154.448 94.9888C154.376 95.2008 154.312 95.4321 154.252 95.6975C154.201 95.9266 154.156 96.1653 154.116 96.4264C154.044 96.89 153.993 97.3749 153.959 97.9088C153.93 98.3649 153.916 98.853 153.917 99.4029C153.916 99.9101 153.933 100.412 153.97 100.895C154.009 101.426 154.068 101.909 154.149 102.373C154.193 102.632 154.244 102.87 154.3 103.099C154.365 103.361 154.434 103.591 154.511 103.801C154.61 104.068 154.708 104.273 154.82 104.443C154.893 104.55 154.96 104.628 155.032 104.688C155.073 104.721 155.112 104.744 155.149 104.76C155.19 104.776 155.227 104.782 155.265 104.782C155.303 104.782 155.341 104.772 155.382 104.753C155.42 104.735 155.46 104.709 155.499 104.675C155.57 104.613 155.638 104.533 155.709 104.423C155.819 104.253 155.916 104.048 156.014 103.78C156.09 103.569 156.159 103.338 156.223 103.076C156.278 102.849 156.327 102.612 156.372 102.351C156.451 101.891 156.509 101.407 156.55 100.872C156.587 100.39 156.605 99.8888 156.605 99.3805C156.605 98.8743 156.586 98.3734 156.547 97.8907C156.503 97.3589 156.44 96.8761 156.354 96.4157C156.306 96.1589 156.252 95.9223 156.193 95.6932C156.123 95.4332 156.051 95.204 155.97 94.9941C155.867 94.7287 155.764 94.5263 155.649 94.3558C155.576 94.2481 155.506 94.1682 155.432 94.1075C155.39 94.0734 155.35 94.0467 155.309 94.0286C155.268 94.0094 155.227 93.9998 155.189 93.9988C155.186 93.9988 155.184 93.9988 155.18 93.9988V93.9945Z" fill="white"/>
<path d="M159.35 99.379C159.347 100.027 159.264 100.675 159.091 101.3C158.915 101.924 158.65 102.524 158.291 103.062C158.111 103.331 157.907 103.584 157.679 103.813C157.451 104.042 157.2 104.249 156.927 104.422C156.653 104.593 156.358 104.732 156.049 104.825C155.74 104.918 155.417 104.967 155.094 104.967C154.771 104.967 154.448 104.918 154.139 104.826C153.83 104.733 153.534 104.596 153.26 104.423C152.986 104.25 152.734 104.045 152.506 103.815C152.278 103.586 152.074 103.333 151.893 103.064C151.533 102.526 151.268 101.926 151.091 101.301C151.004 100.989 150.94 100.671 150.897 100.349C150.854 100.027 150.833 99.7029 150.832 99.379C150.834 99.055 150.855 98.73 150.898 98.4092C150.941 98.0873 151.006 97.7698 151.093 97.4575C151.27 96.8341 151.536 96.2341 151.897 95.697C152.077 95.4284 152.281 95.1759 152.509 94.9468C152.737 94.7176 152.989 94.5119 153.263 94.3404C153.537 94.1688 153.832 94.0324 154.141 93.9397C154.45 93.8459 154.772 93.7969 155.095 93.7969C155.418 93.7969 155.74 93.847 156.049 93.9407C156.358 94.0345 156.653 94.1709 156.926 94.3425C157.198 94.5151 157.45 94.7208 157.678 94.95C157.906 95.1791 158.11 95.4316 158.29 95.7013C158.65 96.2394 158.915 96.8384 159.091 97.4618C159.264 98.0863 159.348 98.7342 159.351 99.3822L159.35 99.379ZM159.265 99.379C159.265 98.7385 159.185 98.0969 159.017 97.4788C158.847 96.8618 158.592 96.265 158.242 95.729C158.066 95.4615 157.868 95.2089 157.644 94.9798C157.421 94.7507 157.174 94.5439 156.904 94.3713C156.635 94.1997 156.343 94.0622 156.037 93.9684C155.731 93.8747 155.412 93.8256 155.093 93.8246C154.773 93.8256 154.454 93.8757 154.148 93.9684C153.843 94.0622 153.552 94.1997 153.282 94.3713C153.012 94.5439 152.766 94.7507 152.544 94.9798C152.321 95.2089 152.123 95.4615 151.947 95.729C151.596 96.265 151.343 96.8607 151.174 97.4778C151.09 97.7868 151.029 98.1012 150.989 98.4188C150.947 98.7363 150.927 99.0561 150.926 99.3768C150.926 99.6965 150.947 100.017 150.989 100.334C151.03 100.651 151.091 100.966 151.175 101.275C151.344 101.892 151.599 102.488 151.949 103.023C152.124 103.29 152.323 103.543 152.546 103.772C152.768 104.001 153.015 104.208 153.284 104.379C153.554 104.55 153.845 104.687 154.15 104.781C154.454 104.875 154.773 104.924 155.092 104.926C155.41 104.925 155.729 104.876 156.034 104.782C156.338 104.689 156.63 104.552 156.9 104.381C157.17 104.21 157.416 104.003 157.64 103.774C157.862 103.545 158.062 103.292 158.238 103.025C158.589 102.489 158.844 101.894 159.013 101.276C159.182 100.658 159.262 100.016 159.264 99.3758L159.265 99.379Z" fill="white"/>
<path d="M155.093 105.115C154.758 105.115 154.422 105.065 154.096 104.967C153.78 104.872 153.474 104.732 153.182 104.548C152.906 104.375 152.643 104.164 152.401 103.92C152.173 103.69 151.961 103.429 151.771 103.146C151.413 102.611 151.137 102.005 150.949 101.342C150.862 101.025 150.794 100.698 150.751 100.369C150.708 100.046 150.686 99.7133 150.684 99.3797C150.686 99.0451 150.708 98.7115 150.751 98.3897C150.794 98.0593 150.862 97.7322 150.95 97.4178C151.139 96.7549 151.415 96.1485 151.774 95.6146C151.963 95.3312 152.176 95.0722 152.405 94.842C152.647 94.598 152.909 94.387 153.184 94.2143C153.474 94.0332 153.78 93.8925 154.097 93.7976C154.422 93.6996 154.757 93.6495 155.092 93.6484C155.428 93.6484 155.764 93.6996 156.088 93.7976C156.404 93.8935 156.711 94.0342 157 94.2154C157.275 94.3891 157.537 94.6001 157.779 94.8431C158.007 95.0733 158.219 95.3333 158.409 95.6157C158.767 96.1496 159.043 96.756 159.229 97.4178C159.402 98.0401 159.492 98.6987 159.496 99.3776V99.3797C159.493 100.059 159.403 100.717 159.231 101.34C159.045 102.002 158.769 102.609 158.412 103.144C158.222 103.427 158.01 103.687 157.782 103.917C157.54 104.161 157.279 104.372 157.004 104.546C156.713 104.729 156.405 104.87 156.09 104.966C155.765 105.064 155.429 105.114 155.093 105.115ZM155.093 93.9735C154.791 93.9745 154.487 94.0214 154.193 94.1109C153.908 94.1983 153.629 94.3283 153.362 94.4978C153.114 94.6555 152.875 94.8537 152.65 95.085C152.44 95.3013 152.245 95.5464 152.071 95.8129C151.743 96.3159 151.489 96.8903 151.317 97.5201C151.238 97.811 151.176 98.1211 151.134 98.4419C151.095 98.7488 151.074 99.0643 151.074 99.3808C151.074 99.6973 151.095 100.013 151.135 100.319C151.177 100.638 151.239 100.948 151.318 101.239C151.49 101.869 151.744 102.443 152.073 102.946C152.247 103.212 152.442 103.456 152.652 103.672C152.878 103.904 153.117 104.102 153.364 104.258C153.628 104.426 153.907 104.556 154.194 104.643C154.488 104.734 154.791 104.781 155.094 104.782C155.397 104.781 155.7 104.734 155.994 104.644C156.281 104.557 156.56 104.427 156.825 104.26C157.071 104.103 157.312 103.905 157.538 103.673C157.748 103.457 157.943 103.213 158.118 102.947C158.447 102.445 158.702 101.87 158.876 101.24C159.036 100.651 159.119 100.024 159.121 99.3797C159.121 98.735 159.038 98.1083 158.877 97.518C158.704 96.8881 158.449 96.3127 158.12 95.8107C157.945 95.5443 157.75 95.2992 157.54 95.0829C157.315 94.8516 157.075 94.6544 156.827 94.4957C156.561 94.3262 156.282 94.1973 155.996 94.1099C155.701 94.0193 155.398 93.9735 155.094 93.9724L155.093 93.9735Z" fill="white"/>
<path d="M150.13 97.1687L151.409 97.158L152.688 97.1527L155.245 97.1484L157.801 97.1538L159.08 97.1602L160.359 97.1719C160.359 97.1719 160.363 97.174 160.363 97.1761C160.363 97.1761 160.361 97.1793 160.359 97.1804L159.08 97.1911L157.801 97.1975L155.245 97.2028L152.688 97.1985L151.409 97.1932L150.13 97.1825L150.125 97.1804C150.125 97.174 150.127 97.1719 150.13 97.1719V97.1687Z" fill="white"/>
<path d="M155.242 97.3474L151.406 97.3368L150.066 97.325L149.977 97.2355V97.1705L149.98 97.0266L150.127 97.0213L152.683 97.0053L155.241 97L159.078 97.0117L160.501 97.0245L160.506 97.3208L160.355 97.324L157.799 97.3421L155.242 97.3474Z" fill="white"/>
<path d="M151.615 95.0213C151.917 95.016 152.22 95.0149 152.523 95.0107L153.431 95.0053C153.733 95.0032 154.036 95.0032 154.339 95.0021L155.247 95L157.061 95.0053L157.969 95.0117C158.272 95.016 158.575 95.0181 158.877 95.0234C158.88 95.0234 158.881 95.0256 158.881 95.0256C158.881 95.0298 158.878 95.0309 158.877 95.0309C158.575 95.0362 158.272 95.0384 157.969 95.0426L157.061 95.049L155.247 95.0544L154.339 95.0522C154.036 95.0522 153.733 95.0522 153.431 95.049L152.523 95.0426C152.22 95.0394 151.917 95.0373 151.615 95.032C151.612 95.032 151.609 95.0298 151.609 95.0266C151.609 95.0234 151.612 95.0213 151.615 95.0213Z" fill="white"/>
<path d="M155.244 95.1968L154.101 95.1947C153.876 95.1947 153.652 95.1947 153.427 95.1926L152.217 95.1841C152.014 95.1819 151.813 95.1798 151.61 95.1766L151.466 95.1745L151.461 94.8782L151.61 94.8729C151.805 94.8697 152.001 94.8675 152.196 94.8654L153.426 94.8558C153.639 94.8537 153.852 94.8537 154.065 94.8537L155.242 94.8516L158.296 94.8665C158.489 94.8686 158.682 94.8707 158.875 94.8739L159.024 94.8761L159.018 95.1702L158.873 95.1745C158.674 95.1777 158.471 95.1798 158.27 95.1819L157.059 95.1915L155.243 95.1968H155.244Z" fill="white"/>
<path d="M149.685 99.3182L151.075 99.3075L152.464 99.3011L155.244 99.2969L158.023 99.3022L159.413 99.3086L160.802 99.3193C160.802 99.3193 160.807 99.3214 160.805 99.3235C160.805 99.3235 160.803 99.3267 160.802 99.3278L159.413 99.3384L158.023 99.3448L155.244 99.3502L152.464 99.3459L151.075 99.3395L149.685 99.3289C149.685 99.3289 149.68 99.3267 149.68 99.3235C149.68 99.3203 149.682 99.3182 149.685 99.3182Z" fill="white"/>
<path d="M155.241 99.4948L151.071 99.4841L149.537 99.4724L149.531 99.174L149.682 99.1687L152.461 99.1527L155.24 99.1484L159.41 99.1591L160.861 99.1708L160.949 99.2614L160.944 99.4681L160.799 99.4713L158.021 99.4895L155.241 99.4948Z" fill="white"/>
<path d="M150.13 101.474L151.409 101.464L152.688 101.457L155.245 101.453L157.801 101.458L159.08 101.465L160.359 101.476L160.363 101.478C160.363 101.482 160.361 101.483 160.359 101.483L159.08 101.495L157.801 101.501L155.245 101.506L152.688 101.502L151.409 101.496L150.13 101.485C150.13 101.485 150.125 101.483 150.125 101.48C150.125 101.477 150.127 101.474 150.13 101.474Z" fill="white"/>
<path d="M155.242 101.651L151.406 101.64L150.066 101.63L149.977 101.54V101.474L149.98 101.33L150.127 101.325L152.684 101.309L155.241 101.305L159.078 101.315L160.501 101.328L160.506 101.624L160.355 101.628L157.799 101.646L155.242 101.651Z" fill="white"/>
<path d="M159.054 103.648H151.793C151.782 103.648 151.773 103.639 151.773 103.629C151.773 103.618 151.782 103.609 151.793 103.609H159.054C159.065 103.609 159.073 103.618 159.073 103.629C159.073 103.639 159.065 103.648 159.054 103.648Z" fill="white"/>
<path d="M159.052 103.793H151.79C151.699 103.793 151.625 103.719 151.625 103.627C151.625 103.536 151.7 103.461 151.79 103.461H159.052C159.143 103.461 159.217 103.536 159.217 103.627C159.217 103.719 159.142 103.793 159.052 103.793Z" fill="white"/>
</g>
<path d="M175.501 40.783L166.701 41.7101C165.613 41.8252 164.664 40.9716 164.664 39.8772V29.7201C164.664 28.8036 165.338 28.0256 166.244 27.8956L175.045 26.6285C176.156 26.4687 177.151 27.3308 177.151 28.453V38.95C177.151 39.8931 176.439 40.6839 175.5 40.783H175.501Z" fill="url(#paint5_linear_1634_24154)"/>
<path d="M168.383 38.8901C167.663 38.8901 167.078 38.305 167.078 37.5857C167.078 36.8663 167.663 36.2812 168.383 36.2812C169.102 36.2812 169.687 36.8663 169.687 37.5857C169.687 38.305 169.102 38.8901 168.383 38.8901ZM168.383 36.7981C167.949 36.7981 167.596 37.1509 167.596 37.5846C167.596 38.0183 167.949 38.3711 168.383 38.3711C168.816 38.3711 169.169 38.0183 169.169 37.5846C169.169 37.1509 168.816 36.7981 168.383 36.7981Z" fill="url(#paint6_linear_1634_24154)"/>
<path d="M168.381 34.8014C169.916 34.8014 171.165 36.0504 171.165 37.585C171.165 37.6798 171.16 37.7736 171.15 37.8663C171.137 37.991 171.242 38.0954 171.365 38.0763L171.77 38.0155C171.859 38.0027 171.925 37.9292 171.931 37.8397C171.938 37.7555 171.941 37.6702 171.941 37.5839C171.941 35.6209 170.343 34.0234 168.38 34.0234C168.231 34.0234 168.085 34.033 167.941 34.0511C167.834 34.065 167.758 34.1641 167.776 34.2717L167.843 34.665C167.86 34.7641 167.952 34.8334 168.052 34.8206C168.16 34.8067 168.268 34.8003 168.38 34.8003L168.381 34.8014Z" fill="url(#paint7_linear_1634_24154)"/>
<path d="M168.381 32.8003C171.023 32.8003 173.172 34.9488 173.172 37.5906V37.5927C173.172 37.7078 173.273 37.7973 173.387 37.7803L173.784 37.7206C173.846 37.6492 173.887 37.6023 173.949 37.5309C173.917 34.4884 171.431 32.0234 168.381 32.0234C168.115 32.0234 167.854 32.0437 167.597 32.0799C167.493 32.0948 167.422 32.195 167.44 32.2984L167.507 32.6916C167.525 32.7918 167.617 32.8621 167.717 32.8472C167.935 32.8163 168.155 32.8003 168.381 32.8003Z" fill="url(#paint8_linear_1634_24154)"/>
<path d="M168.38 30.7914C172.03 30.7914 175.016 33.6848 175.17 37.2975C175.174 37.4104 175.274 37.4968 175.387 37.4797L175.781 37.4211C175.877 37.4072 175.948 37.322 175.943 37.2261C175.752 33.218 172.435 30.0156 168.381 30.0156C168.001 30.0156 167.627 30.0455 167.261 30.1009C167.157 30.1169 167.086 30.216 167.104 30.3204L167.172 30.7126C167.189 30.8149 167.286 30.882 167.388 30.8671C167.713 30.8192 168.044 30.7925 168.382 30.7925L168.38 30.7914Z" fill="url(#paint9_linear_1634_24154)"/>
<path d="M14.9141 85.9542C14.9141 85.9542 32.3242 131.872 37.8253 141.423C44.2109 152.512 62.8584 145.446 61.9301 136.166C61.0019 126.886 39.215 88.531 39.215 88.531L14.9141 85.9531V85.9542Z" fill="url(#paint10_linear_1634_24154)"/>
<path d="M38.4417 52.503L128.498 14.9844L127.361 116.517L35.4844 91.9655L38.4417 52.503Z" fill="url(#paint11_linear_1634_24154)"/>
<path d="M128.6 118.224C134.472 118.224 139.231 94.8627 139.231 66.0455C139.231 37.2282 134.472 13.8672 128.6 13.8672C122.729 13.8672 117.969 37.2282 117.969 66.0455C117.969 94.8627 122.729 118.224 128.6 118.224Z" fill="url(#paint12_linear_1634_24154)"/>
<path d="M129.406 114.655C128.445 113.678 126.352 109.907 124.557 100.158C122.822 90.7365 121.867 78.5173 121.867 65.7493C121.867 52.9813 122.822 40.7621 124.557 31.3403C126.352 21.5914 128.445 17.821 129.406 16.8438C130.367 17.821 132.46 21.5914 134.255 31.3403C135.99 40.7621 136.945 52.9813 136.945 65.7493C136.945 78.5173 135.99 90.7365 134.255 100.158C132.46 109.907 130.367 113.678 129.406 114.655Z" fill="url(#paint13_linear_1634_24154)"/>
<mask id="mask0_1634_24154" style="mask-type:luminance" maskUnits="userSpaceOnUse" x="121" y="16" width="29" height="99">
<path d="M129.406 114.655C128.445 113.678 126.352 109.907 124.557 100.158C122.822 90.7365 121.867 78.5173 121.867 65.7493C121.867 52.9813 122.822 40.7621 124.557 31.3403C126.352 21.5914 128.445 17.821 129.406 16.8438C130.367 17.821 132.46 21.5914 134.255 31.3403C135.99 40.7621 149.675 52.9813 149.675 65.7493C149.675 78.5173 135.989 90.7365 134.255 100.158C132.46 109.907 130.367 113.678 129.406 114.655Z" fill="white"/>
</mask>
<g mask="url(#mask0_1634_24154)">
<path d="M143.033 65.365C143.033 74.2304 138.256 81.4175 128.804 81.4175C119.351 81.4175 111.688 74.2304 111.688 65.365C111.688 56.4995 119.351 49.3125 128.804 49.3125C138.256 49.3125 143.033 56.4995 143.033 65.365Z" fill="#EA4958"/>
</g>
<path d="M20.987 50.3216C26.0778 49.7301 33.3777 49.5181 41.2702 51.3255C38.67 64.9087 39.0621 79.0664 42.0695 93.7271H19.8083C16.2596 93.7271 13.233 91.1492 12.6789 87.6431C11.5695 80.6159 10.2128 68.8049 11.659 59.3192C12.3847 54.5588 16.2031 50.8779 20.987 50.3227V50.3216Z" fill="url(#paint14_linear_1634_24154)"/>
<path d="M34.35 60.6395H17.0059C16.4496 60.6395 15.9583 60.3475 15.693 59.8584C15.4266 59.3692 15.4489 58.7991 15.7516 58.3323C15.8592 58.1661 16.082 58.1181 16.2482 58.2257C16.4145 58.3334 16.4624 58.5561 16.3548 58.7223C16.1981 58.9653 16.1864 59.2616 16.3249 59.5152C16.4635 59.7689 16.7182 59.9202 17.007 59.9202H34.3511C34.7795 59.9202 35.128 59.5717 35.128 59.1433V57.9092C35.128 57.4808 34.7795 57.1323 34.3511 57.1323H16.877C16.6788 57.1323 16.5178 56.9714 16.5178 56.7732C16.5178 56.575 16.6788 56.4141 16.877 56.4141H34.35C35.1749 56.4141 35.8452 57.0844 35.8452 57.9092V59.1433C35.8452 59.9681 35.1749 60.6385 34.35 60.6385V60.6395Z" fill="#BDD0FB"/>
<path d="M32.8031 68.3192H15.459C14.9028 68.3192 14.4115 68.0272 14.1461 67.5381C13.8797 67.0489 13.9021 66.4788 14.2047 66.012C14.3124 65.8457 14.5351 65.7978 14.7013 65.9054C14.8676 66.0131 14.9155 66.2358 14.8079 66.402C14.6513 66.645 14.6395 66.9413 14.7781 67.1949C14.9166 67.4485 15.1713 67.5999 15.4601 67.5999H32.8042C33.2326 67.5999 33.5811 67.2514 33.5811 66.823V65.5889C33.5811 65.1605 33.2326 64.812 32.8042 64.812H15.3301C15.1319 64.812 14.971 64.6511 14.971 64.4529C14.971 64.2547 15.1319 64.0938 15.3301 64.0938H32.8031C33.628 64.0938 34.2983 64.7641 34.2983 65.5889V66.823C34.2983 67.6478 33.628 68.3181 32.8031 68.3181V68.3192Z" fill="#BDD0FB"/>
<path d="M54.1638 49.6671C54.0221 49.6671 53.8878 49.5829 53.8313 49.4433C53.7567 49.26 53.8441 49.0501 54.0285 48.9744L117.831 22.8938C118.015 22.8192 118.225 22.9066 118.3 23.091C118.375 23.2743 118.287 23.4842 118.103 23.5599L54.2991 49.6405C54.2544 49.6586 54.2086 49.6671 54.1638 49.6671Z" fill="#BDD0FB"/>
<path d="M43.0818 54.2014C42.94 54.2014 42.8058 54.1172 42.7493 53.9776C42.6747 53.7943 42.7621 53.5844 42.9464 53.5087L47.1644 51.7844C47.3477 51.7098 47.5577 51.7972 47.6333 51.9816C47.7079 52.1649 47.6205 52.3748 47.4362 52.4505L43.2182 54.1748C43.1734 54.1929 43.1276 54.2014 43.0828 54.2014H43.0818Z" fill="#BDD0FB"/>
<path d="M34.35 77.3181H17.0059C16.4496 77.3181 15.9583 77.0261 15.693 76.537C15.4266 76.0478 15.4489 75.4777 15.7516 75.0109C15.8592 74.8447 16.082 74.7967 16.2482 74.9044C16.4145 75.012 16.4624 75.2347 16.3548 75.401C16.1981 75.6439 16.1864 75.9402 16.3249 76.1938C16.4635 76.4475 16.7182 76.5999 17.007 76.5999H34.3511C34.7795 76.5999 35.128 76.2514 35.128 75.823V74.5889C35.128 74.1605 34.7795 73.812 34.3511 73.812H16.877C16.6788 73.812 16.5178 73.6511 16.5178 73.4529C16.5178 73.2547 16.6788 73.0938 16.877 73.0938H34.35C35.1749 73.0938 35.8452 73.7641 35.8452 74.5889V75.823C35.8452 76.6478 35.1749 77.3181 34.35 77.3181Z" fill="#BDD0FB"/>
<path d="M35.9711 87.2968H18.627C18.0707 87.2968 17.5794 87.0048 17.3141 86.5157C17.0477 86.0265 17.07 85.4564 17.3727 84.9886C17.4803 84.8223 17.7031 84.7743 17.8693 84.882C18.0356 84.9896 18.0835 85.2124 17.9759 85.3786C17.8192 85.6216 17.8075 85.9178 17.946 86.1715C18.0846 86.4251 18.3393 86.5764 18.6281 86.5764H35.9722C36.4006 86.5764 36.7491 86.2279 36.7491 85.7995V84.5655C36.7491 84.1371 36.4006 83.7886 35.9722 83.7886H18.4981C18.2998 83.7886 18.1389 83.6277 18.1389 83.4294C18.1389 83.2312 18.2998 83.0703 18.4981 83.0703H35.9711C36.796 83.0703 37.4663 83.7406 37.4663 84.5655V85.7995C37.4663 86.6244 36.796 87.2947 35.9711 87.2947V87.2968Z" fill="#BDD0FB"/>
<path d="M51.4612 141.593C50.6683 141.593 49.8669 141.508 49.0676 141.333C45.569 140.571 42.7193 138.264 41.2519 135.003L27.3947 104.218C27.3137 104.037 27.3947 103.825 27.5748 103.743C27.756 103.661 27.9681 103.743 28.0501 103.923L41.9073 134.708C43.2809 137.759 45.9462 139.917 49.22 140.631C52.4384 141.332 55.6952 140.5 58.1558 138.346C58.2869 138.231 58.4191 138.112 58.5512 137.992C58.6983 137.858 58.9253 137.868 59.0585 138.015C59.1928 138.162 59.1821 138.389 59.035 138.523C58.8986 138.647 58.7633 138.769 58.6279 138.887C56.6063 140.656 54.0817 141.593 51.4601 141.593H51.4612Z" fill="#BDD0FB"/>
<path d="M25.6744 99.8805C25.537 99.8805 25.407 99.8017 25.3462 99.6685L23.801 96.2338C23.72 96.0526 23.801 95.8405 23.9811 95.7585C24.1622 95.6764 24.3743 95.7585 24.4564 95.9386L26.0027 99.3733C26.0837 99.5544 26.0027 99.7665 25.8226 99.8486C25.7746 99.8699 25.7245 99.8805 25.6755 99.8805H25.6744Z" fill="white"/>
<path opacity="0.67" d="M140.497 64.8117C140.31 64.8117 140.152 64.6668 140.139 64.4782C139.828 60.1088 138.312 56.8489 135.63 54.79C130.997 51.2327 124.392 52.4551 124.326 52.4678C124.13 52.5051 123.942 52.3773 123.905 52.1833C123.868 51.9883 123.994 51.7997 124.189 51.7624C124.473 51.708 131.18 50.4686 136.067 54.2198C138.918 56.4098 140.53 59.8435 140.855 64.427C140.869 64.6252 140.719 64.7968 140.522 64.8107C140.514 64.8107 140.505 64.8107 140.497 64.8107V64.8117Z" fill="white"/>
<path d="M104.664 145.066C104.664 145.066 111.471 136.512 110.365 128.424C109.259 120.337 103.733 121.302 101.275 126.084C98.8164 130.866 96.6061 130.209 98.0672 125.714C99.5283 121.218 101.358 118.292 98.3315 113.817C95.3049 109.341 94.9916 107.44 96.6914 103.447C98.3922 99.4535 100.527 93.7947 93.7607 91.7752C86.9947 89.7557 80.2542 95.9591 81.8314 104.078C83.4097 112.196 84.3571 113.08 82.1842 116.088C80.0112 119.095 80.9171 120.33 81.224 122.288C81.532 124.246 78.2113 124.704 78.2827 121.947C78.353 119.19 82.5774 112.683 79.6947 109.647C76.812 106.611 71.1617 106.579 69.7145 113.597C68.2673 120.617 72.9041 123.771 72.6729 126.31C72.4416 128.848 69.9522 124.999 67.7835 127.587C65.6148 130.174 68.5348 132.207 70.6832 133.61C72.8317 135.012 76.0724 137.526 72.9894 139.351C69.9063 141.176 66.9874 139.43 68.8758 145.066H104.663H104.664Z" fill="#91B3FA"/>
<path d="M90.6695 97.6328C90.4467 97.7511 90.2528 97.8992 90.062 98.057C89.8723 98.2157 89.6986 98.3926 89.5356 98.5791C89.2073 98.9521 88.9303 99.371 88.7054 99.8175C88.2536 100.712 88.0116 101.706 87.9307 102.702C87.9168 102.827 87.9125 102.952 87.9061 103.076C87.9019 103.201 87.8944 103.327 87.8966 103.451L87.8987 103.827L87.9168 104.201L87.9264 104.387L87.9445 104.573L87.9818 104.945C88.0191 105.19 88.0457 105.438 88.0926 105.682C88.1374 105.926 88.1822 106.17 88.2408 106.411L88.3239 106.773L88.4102 107.123L88.7576 108.521C89.218 110.384 89.6613 112.246 90.0098 114.118C90.3487 115.988 90.5832 117.88 90.5309 119.748C90.5192 120.215 90.4883 120.679 90.4276 121.138C90.37 121.597 90.2901 122.052 90.1729 122.494C90.0567 122.937 89.915 123.371 89.7327 123.787C89.5303 124.257 89.3725 124.745 89.25 125.229C89.0177 126.2 88.8802 127.171 88.7747 128.137C88.6734 129.104 88.5935 130.067 88.5317 131.029C88.3996 132.952 88.2866 134.868 88.0095 136.757C87.9743 136.994 87.937 137.23 87.8934 137.463C87.8539 137.698 87.8038 137.931 87.7548 138.164C87.7101 138.399 87.6461 138.627 87.5928 138.859C87.563 138.974 87.5278 139.087 87.4959 139.202C87.4628 139.316 87.433 139.431 87.3925 139.543L87.2784 139.881C87.2401 139.994 87.1921 140.102 87.1495 140.212C87.0664 140.435 86.9587 140.645 86.8596 140.861C86.639 141.28 86.379 141.68 86.0625 142.037L86.1392 142.114C86.4898 141.775 86.7893 141.384 87.0493 140.969C87.2976 140.548 87.515 140.107 87.6909 139.652C88.0532 138.744 88.2919 137.794 88.488 136.844C88.8791 134.938 89.0645 133.008 89.2755 131.097C89.3832 130.141 89.478 129.186 89.6091 128.242C89.7391 127.297 89.9022 126.362 90.1452 125.465C90.273 125.02 90.4169 124.59 90.6034 124.179C90.8165 123.716 90.9839 123.236 91.1192 122.75C91.2567 122.264 91.3526 121.77 91.424 121.275C91.4975 120.781 91.5401 120.283 91.5615 119.788C91.6446 117.803 91.3984 115.849 91.0659 113.931C90.727 112.013 90.2698 110.127 89.7583 108.264C89.6294 107.798 89.4993 107.334 89.3651 106.87L89.2638 106.523L89.1711 106.185C89.105 105.96 89.056 105.732 89.0017 105.505C88.9441 105.278 88.909 105.049 88.861 104.82L88.8077 104.476C88.7885 104.361 88.7725 104.245 88.7608 104.13C88.6969 103.669 88.6809 103.205 88.6766 102.743C88.6756 102.279 88.7139 101.817 88.7928 101.362C88.8738 100.907 88.9846 100.456 89.1498 100.021C89.2351 99.8058 89.3267 99.5916 89.4343 99.3848C89.5377 99.1759 89.6571 98.9745 89.7871 98.7795C90.0482 98.3926 90.3572 98.0239 90.7249 97.7319L90.6695 97.6381V97.6328Z" fill="#DCE5FE"/>
<path d="M105.163 126.603C104.959 128.117 104.671 129.617 104.319 131.098C104.141 131.838 103.946 132.574 103.729 133.302C103.678 133.485 103.617 133.665 103.562 133.846C103.507 134.028 103.446 134.207 103.386 134.387C103.271 134.749 103.141 135.106 103.014 135.463C102.878 135.817 102.746 136.171 102.598 136.52C102.46 136.873 102.302 137.217 102.149 137.563C101.828 138.248 101.49 138.925 101.115 139.583C100.741 140.24 100.327 140.873 99.8865 141.49C99.4368 142.101 98.9476 142.681 98.4297 143.243L98.5032 143.323C99.1032 142.839 99.6552 142.294 100.164 141.71C100.663 141.118 101.121 140.491 101.538 139.836C101.941 139.175 102.322 138.498 102.65 137.797C102.81 137.444 102.975 137.093 103.119 136.735C103.269 136.378 103.4 136.015 103.536 135.654C103.662 135.288 103.792 134.925 103.906 134.555C103.966 134.372 104.021 134.186 104.073 134.001C104.125 133.815 104.181 133.631 104.229 133.443C104.435 132.699 104.603 131.947 104.749 131.19C105.036 129.677 105.236 128.148 105.27 126.608L105.162 126.602L105.163 126.603Z" fill="#DCE5FE"/>
<path d="M26.221 142.422C26.221 142.422 25.9812 143.781 25.8629 145.124C25.8171 145.65 26.2221 146.106 26.7496 146.128C28.5399 146.203 32.3711 146.348 33.7448 146.287C33.9515 146.278 34.0868 146.067 34.0101 145.875C33.9462 145.714 33.8225 145.584 33.6648 145.511L27.3378 142.603L26.221 142.422Z" fill="url(#paint15_linear_1634_24154)"/>
<path d="M26.0234 141.625L26.2163 143.251C26.2163 143.251 27.3246 143.766 28.0813 143.186L27.622 141.375L26.0234 141.625Z" fill="url(#paint16_linear_1634_24154)"/>
<path d="M26.1663 111.08C26.0832 111.504 25.7198 132.254 27.9375 141.553C27.9737 141.704 27.897 141.861 27.752 141.92C27.4121 142.059 26.745 142.26 25.9457 142.287C25.6985 142.295 25.4757 142.134 25.4065 141.897C24.7724 139.74 21.7341 128.931 21.3377 118.604C20.8943 107.066 21.3377 118.211 21.3377 118.211L21.5977 111.078H26.1663V111.08Z" fill="url(#paint17_linear_1634_24154)"/>
<path d="M18.9427 143.133C18.9427 143.133 18.5611 143.818 18.1914 145.64C18.1242 145.97 18.3544 146.284 18.689 146.317C19.2805 146.376 20.1906 146.45 20.9195 146.445C21.2552 146.443 21.5184 146.15 21.4779 145.816C21.3969 145.151 21.1454 144.06 20.3686 143.21L18.9437 143.133H18.9427Z" fill="url(#paint18_linear_1634_24154)"/>
<path d="M18.6055 141.041L19.0563 143.499C19.0563 143.499 19.5017 143.83 20.383 143.589L20.1678 140.945L18.6055 141.041Z" fill="url(#paint19_linear_1634_24154)"/>
<path d="M17.3897 111.711C15.5759 122.659 17.7829 138.769 18.5278 141.923C18.5737 142.115 18.7293 142.264 18.9253 142.296C19.2578 142.351 19.8045 142.396 20.3438 142.239C20.5292 142.185 20.6603 142.017 20.6677 141.825C20.7679 139.275 20.5878 123.626 22.278 117.44C22.3633 117.127 22.5551 116.853 22.8204 116.666L26.1006 114.333L26.3521 110.562L17.3897 111.711Z" fill="url(#paint20_linear_1634_24154)"/>
<path d="M28.9478 90.9747C23.5117 90.8852 17.513 92.4017 17.513 92.4017C15.8921 101.856 17.2295 112.763 17.2295 112.763C21.4379 113.867 26.1855 112.088 26.1855 112.088C26.8846 108.137 30.1488 97.014 30.1488 97.014C32.8045 96.6847 34.9935 95.9185 36.7945 94.905C35.4197 93.3118 34.7718 91.2848 34.4905 90.0859C32.568 90.6838 30.6231 91.0024 28.9468 90.9747H28.9478Z" fill="#EA4958"/>
<path d="M45.0063 82.9666C44.4724 82.3219 43.7967 82.6267 43.7967 82.6267C42.9964 86.006 38.8018 88.7459 34.4922 90.0854C34.7735 91.2843 35.4215 93.3113 36.7962 94.9045C43.948 90.8836 45.0063 82.9666 45.0063 82.9666Z" fill="url(#paint21_linear_1634_24154)"/>
<path d="M44.8767 83.1273C44.9321 83.3052 44.2852 83.5759 43.9047 82.8491C43.892 82.5006 43.6799 81.0087 43.8877 80.7252C44.996 79.214 47.1444 77.3203 47.1444 77.3203C47.5078 77.6784 47.2084 78.0301 47.2084 78.0301L46.1661 79.116C46.3846 79.5103 46.65 79.8428 46.7746 80.3192C46.8695 80.6804 46.8109 81.0651 46.6286 81.3944C46.4453 81.7237 46.196 82.1521 45.9605 82.4878C45.5139 83.1219 44.8767 83.1273 44.8767 83.1273Z" fill="url(#paint22_linear_1634_24154)"/>
<path d="M45.7089 79.8203L44.7593 80.626L44.4609 81.4274L45.3082 82.3673C45.3082 82.3673 45.5927 80.7762 45.8048 80.432C46.0168 80.0878 45.9071 79.9216 45.7099 79.8203H45.7089Z" fill="url(#paint23_linear_1634_24154)"/>
<path d="M19.5996 97.6619L17.514 92.3984C17.514 92.3984 12.436 95.8481 11.6016 100.223C12.5607 100.293 14.3073 100.542 16.0156 101.406C16.3908 99.3403 19.5996 97.6619 19.5996 97.6619Z" fill="#EA4958"/>
<path d="M24.0355 102.611C24.0355 102.611 18.334 105.833 16.4105 103.082C16.0108 102.511 15.916 101.943 16.014 101.402C14.3046 100.538 12.5591 100.289 11.5999 100.219C11.3484 101.537 11.4816 102.941 12.2564 104.358C15.6261 110.522 24.79 104.017 24.79 104.017L24.0355 102.611Z" fill="url(#paint24_linear_1634_24154)"/>
<path d="M23.3512 106.69L26.463 95.8246C26.4981 95.701 26.6036 95.6115 26.7305 95.5966C27.2942 95.5305 28.9279 95.3461 30.8142 95.1863C33.0862 94.9945 35.7238 94.8389 37.301 94.971C37.5248 94.9902 37.6602 95.2268 37.5611 95.4282C36.6648 97.242 32.9765 104.62 31.1307 107.037C31.0699 107.117 30.9751 107.164 30.8739 107.163L23.6549 107.095C23.4449 107.093 23.2947 106.892 23.3522 106.69H23.3512Z" fill="#BDD0FB"/>
<path d="M31.1372 94.2457L33.3932 93.8695C33.5137 93.8493 33.6117 93.9644 33.5734 94.0795L33.3496 94.7562C33.3304 94.8148 33.2782 94.8574 33.2174 94.8659L31.0466 95.1558C30.9347 95.1707 30.842 95.0684 30.8676 94.9587L31.0061 94.3683C31.021 94.3043 31.0722 94.2564 31.1372 94.2457Z" fill="url(#paint25_linear_1634_24154)"/>
<path d="M29.4474 96.1584L29.6329 95.1907C29.6521 95.0937 29.732 95.0202 29.83 95.0106L34.3859 94.5481C34.5393 94.5321 34.6619 94.6728 34.6256 94.8231L34.3358 96.0294C34.3123 96.1264 34.2281 96.1957 34.129 96.201L29.6766 96.4248C29.5316 96.4323 29.4187 96.3012 29.4453 96.1594L29.4474 96.1584Z" fill="url(#paint26_linear_1634_24154)"/>
<path d="M24.1052 104.065C24.1052 104.065 23.6714 102.283 23.8462 101.65C24.021 101.018 24.3599 100.205 25.4884 100.385C26.6181 100.566 27.9491 101.041 27.9491 101.041C27.9491 101.041 27.882 101.865 27.0241 101.599L27.5559 102.01C27.5559 102.01 27.4802 102.67 26.7545 102.317L27.2489 102.863C27.2489 102.863 26.9378 103.404 26.4049 103.057C25.8721 102.709 25.6163 104.277 24.1041 104.063L24.1052 104.065Z" fill="url(#paint27_linear_1634_24154)"/>
<path d="M23.4429 86.5547L21.7133 91.557C21.6845 91.6402 21.7186 91.7318 21.7953 91.7744C22.2663 92.0355 23.9651 92.789 26.0122 91.491C26.2254 91.3556 26.3703 91.135 26.4034 90.8846L26.9639 86.5547H23.4429Z" fill="url(#paint28_linear_1634_24154)"/>
<path d="M27.2028 81.9307C27.2028 81.9307 29.1019 85.5061 28.8589 86.9501C28.6159 88.3942 26.2618 88.2908 24.2061 87.1175L22.7695 83.2565L27.2028 81.9297V81.9307Z" fill="url(#paint29_linear_1634_24154)"/>
<path d="M24.2959 85.2188C24.379 85.1815 24.4099 85.0792 24.3598 85.0035C24.2074 84.7712 23.9229 84.297 23.8312 83.8814C23.8312 83.8814 23.4902 83.6629 24.6998 83.373C25.9104 83.0832 27.7157 82.6334 28.095 81.6029C28.4648 80.598 27.4929 78.0723 25.9423 80.0854C25.8837 80.1621 25.7676 80.1632 25.709 80.0875C25.4543 79.7571 24.7861 79.0698 23.8589 79.4865C22.9904 79.8765 22.8923 80.5127 22.9051 80.8335C22.9083 80.9283 22.8241 81.0008 22.7314 80.9837C22.2924 80.8996 21.2384 80.8282 20.7471 81.9088C20.3421 82.7986 20.6054 83.3027 20.8452 83.5489C20.9229 83.6288 20.8888 83.7599 20.7823 83.7929C20.4935 83.8814 20.1215 84.1254 20.1588 84.8021C20.21 85.7367 21.2554 85.6547 21.5528 85.612C21.6018 85.6046 21.6508 85.6216 21.6838 85.6579C21.9385 85.9403 23.0884 87.1392 24.3321 87.283C24.4397 87.2958 24.5228 87.1893 24.4877 87.087L23.9495 85.5225C23.925 85.4501 23.9591 85.3701 24.0294 85.3392L24.2959 85.2209V85.2188Z" fill="url(#paint30_linear_1634_24154)"/>
<path d="M24.5115 85.4438C24.5115 85.4438 23.1591 84.5156 23.06 85.2978C22.9609 86.079 24.2781 86.4296 24.9303 86.1387L24.5115 85.4449V85.4438Z" fill="url(#paint31_linear_1634_24154)"/>
<path d="M172.929 53.8787L152.821 52.8321C151.179 52.7469 149.868 54.0268 149.915 55.6818L150.435 74.1736C150.478 75.6848 151.786 76.8389 153.337 76.7622L172.431 75.8191C173.726 75.7551 174.794 74.6074 174.832 73.2476L175.298 56.6836C175.339 55.2086 174.285 53.949 172.93 53.8787H172.929Z" fill="#7D97F4"/>
<path d="M162.269 72.304C158.093 72.304 154.695 68.9065 154.695 64.7301C154.695 60.5537 158.093 57.1562 162.269 57.1562C166.446 57.1562 169.843 60.5537 169.843 64.7301C169.843 68.9065 166.446 72.304 162.269 72.304ZM162.269 58.4255C158.793 58.4255 155.965 61.2538 155.965 64.7301C155.965 68.2064 158.793 71.0347 162.269 71.0347C165.745 71.0347 168.574 68.2064 168.574 64.7301C168.574 61.2538 165.745 58.4255 162.269 58.4255Z" fill="url(#paint32_linear_1634_24154)"/>
<path fill-rule="evenodd" clip-rule="evenodd" d="M159.898 67.6495V62.2049C159.898 61.623 160.531 61.2628 161.032 61.5591L165.62 64.2819C166.11 64.5728 166.11 65.2826 165.62 65.5724L161.032 68.2953C160.533 68.5926 159.898 68.2313 159.898 67.6495Z" fill="url(#paint33_linear_1634_24154)"/>
<path d="M209.973 27.521L191.629 26.5662C190.131 26.4884 188.936 27.6564 188.978 29.1654L189.452 46.0353C189.49 47.4143 190.684 48.4672 192.099 48.3968L209.518 47.5368C210.698 47.4782 211.674 46.4317 211.709 45.1912L212.134 30.0797C212.171 28.7338 211.211 27.585 209.974 27.521H209.973Z" fill="url(#paint34_linear_1634_24154)"/>
<g opacity="0.76">
<path d="M206.879 43.9588H194.02C193.031 43.9588 192.227 43.1542 192.227 42.1642V32.7946C192.227 31.8057 193.031 31 194.02 31H206.879C207.868 31 208.673 31.8046 208.673 32.7946V42.1642C208.673 43.1531 207.869 43.9588 206.879 43.9588ZM194.02 32.2469C193.717 32.2469 193.472 32.493 193.472 32.7946V42.1642C193.472 42.4668 193.719 42.7119 194.02 42.7119H206.879C207.181 42.7119 207.426 42.4658 207.426 42.1642V32.7946C207.426 32.492 207.18 32.2469 206.879 32.2469H194.02Z" fill="white"/>
<path d="M200.453 37.8375C200.328 37.8375 200.201 37.7991 200.093 37.7224L192.891 32.6156C192.611 32.4163 192.545 32.0274 192.743 31.7471C192.942 31.4658 193.331 31.4007 193.612 31.599L200.452 36.45L207.204 31.6544C207.484 31.4551 207.873 31.5212 208.072 31.8014C208.271 32.0817 208.205 32.4707 207.925 32.67L200.814 37.7213C200.706 37.7981 200.579 37.8364 200.452 37.8364L200.453 37.8375Z" fill="white"/>
<path d="M193.347 43.6743L193.163 42.4413L193.249 43.0583L192.727 42.7195C192.863 42.4999 195.458 37.9601 197.169 34.9634C197.34 34.6639 197.72 34.5595 198.02 34.731C198.318 34.9016 198.423 35.282 198.252 35.5804C198.252 35.5804 197.141 37.5263 196.028 39.4734C195.472 40.4463 194.914 41.4204 194.495 42.1504C193.93 43.1336 193.547 43.6413 193.347 43.6732V43.6743Z" fill="white"/>
<path d="M207.515 43.6732C207.314 43.6413 206.932 43.1336 206.367 42.1504C205.948 41.4204 205.391 40.4463 204.834 39.4734C203.72 37.5263 202.609 35.5804 202.609 35.5804C202.439 35.282 202.542 34.9016 202.842 34.731C203.14 34.5595 203.521 34.6639 203.691 34.9634C205.403 37.9611 207.998 42.4999 208.134 42.7195L207.612 43.0583L207.515 43.6743V43.6732Z" fill="white"/>
</g>
<path d="M192.77 91.7602L181.958 91.1975C181.074 91.1516 180.37 91.8401 180.395 92.7299L180.674 102.674C180.697 103.487 181.4 104.107 182.235 104.066L192.503 103.558C193.198 103.524 193.773 102.907 193.794 102.175L194.045 93.2681C194.067 92.4752 193.5 91.7975 192.771 91.7602H192.77Z" fill="#E84A57"/>
<path opacity="0.76" d="M191.355 92.8047H183.711C183.004 92.8047 182.062 93.4111 182.062 94.1411V98.3932C182.062 99.0944 183.01 99.5111 183.711 99.5111H188.969C189.15 99.5111 189.248 100.01 189.248 100.191V100.819C189.248 101.078 189.506 101.174 189.634 101.216C189.695 101.259 189.798 101.323 189.926 101.323C190.032 101.323 190.136 101.277 190.204 101.198L191.347 99.8628C192.062 99.8468 192.362 99.0933 192.362 98.3932V94.1411C192.362 93.4452 192.051 92.8047 191.355 92.8047ZM191.644 98.3932C191.644 98.7225 191.621 99.0326 191.355 99.0326H191.07L189.728 100.436V99.5132C189.728 99.332 189.829 99.0326 189.648 99.0326H183.711C183.386 99.0326 182.782 98.7193 182.782 98.3932V94.3169C182.782 93.8416 183.383 93.7627 183.711 93.7627H191.355C191.678 93.7627 191.644 93.8182 191.644 94.1411V98.3932Z" fill="white"/>
<path d="M190.926 94.9585C190.926 95.0907 190.818 95.1983 190.686 95.1983H183.74C183.608 95.1983 183.5 95.0907 183.5 94.9585C183.5 94.8264 183.608 94.7188 183.74 94.7188H190.686C190.818 94.7188 190.926 94.8264 190.926 94.9585Z" fill="white"/>
<path d="M190.926 96.1538C190.926 96.286 190.818 96.3936 190.686 96.3936H183.74C183.608 96.3936 183.5 96.286 183.5 96.1538C183.5 96.0217 183.608 95.9141 183.74 95.9141H190.686C190.818 95.9141 190.926 96.0217 190.926 96.1538Z" fill="white"/>
<path d="M190.926 97.8335C190.926 97.9657 190.818 98.0733 190.686 98.0733H183.74C183.608 98.0733 183.5 97.9657 183.5 97.8335C183.5 97.7014 183.608 97.5938 183.74 97.5938H190.686C190.818 97.5938 190.926 97.7014 190.926 97.8335Z" fill="white"/>
<path d="M173.044 25.1299C173.268 25.2215 173.492 25.3153 173.715 25.4123C173.958 25.5178 174.07 25.7991 173.964 26.0421C173.939 26.1018 173.903 26.1529 173.859 26.1956C173.723 26.3266 173.518 26.3714 173.335 26.2915C173.118 26.1977 172.9 26.106 172.681 26.0165C172.436 25.9164 172.319 25.6371 172.418 25.392C172.518 25.148 172.797 25.0297 173.043 25.1288L173.044 25.1299Z" fill="#BDD0FB"/>
<path d="M166.213 77.0522C166.448 77.017 166.684 76.9808 166.919 76.9435C167.181 76.9019 167.426 77.081 167.467 77.3421C167.493 77.5019 167.435 77.6554 167.328 77.7609C167.259 77.8269 167.17 77.8738 167.069 77.8898C166.831 77.9271 166.592 77.9634 166.355 77.9996C166.094 78.039 165.85 77.8579 165.81 77.5968C165.771 77.3357 165.951 77.0916 166.213 77.0522Z" fill="#BDD0FB"/>
<path d="M170.76 24.2961L170.849 24.3249C171.051 24.391 171.251 24.4581 171.45 24.5284C171.701 24.6158 171.833 24.8886 171.745 25.138C171.72 25.2105 171.678 25.2733 171.627 25.3245C171.501 25.4471 171.313 25.495 171.136 25.4332C170.942 25.3661 170.747 25.3 170.551 25.236L170.464 25.2083C170.213 25.1273 170.074 24.8567 170.156 24.6052C170.239 24.3526 170.508 24.2151 170.76 24.2972V24.2961Z" fill="#BDD0FB"/>
<path d="M168.421 23.6321C168.656 23.6896 168.892 23.7504 169.126 23.8122C169.382 23.8804 169.534 24.1425 169.466 24.3983C169.443 24.4857 169.398 24.5603 169.337 24.6178C169.22 24.7319 169.048 24.783 168.88 24.7372C168.652 24.6764 168.423 24.6178 168.194 24.5614C167.937 24.4985 167.779 24.2395 167.842 23.9827C167.905 23.7258 168.164 23.5681 168.421 23.631V23.6321Z" fill="#BDD0FB"/>
<path d="M168.56 76.6661C168.795 76.6245 169.029 76.5819 169.264 76.5393C169.524 76.4913 169.774 76.6629 169.822 76.9229C169.852 77.0871 169.796 77.2469 169.685 77.3545C169.62 77.4185 169.535 77.4632 169.438 77.4814C169.201 77.5251 168.964 77.5687 168.727 77.6103C168.467 77.6561 168.217 77.4824 168.171 77.2213C168.126 76.9602 168.299 76.7119 168.56 76.6661Z" fill="#BDD0FB"/>
<path d="M170.9 76.2203C171.133 76.1723 171.365 76.1233 171.599 76.0732C171.858 76.0178 172.112 76.183 172.168 76.4409C172.204 76.6082 172.147 76.7744 172.032 76.8853C171.971 76.946 171.891 76.9897 171.799 77.01C171.563 77.06 171.327 77.1101 171.091 77.1581C170.832 77.2114 170.579 77.0441 170.526 76.7851C170.472 76.5261 170.64 76.2725 170.899 76.2192L170.9 76.2203Z" fill="#BDD0FB"/>
<path d="M176.738 27.4554C176.872 27.2274 177.165 27.1506 177.393 27.2849C177.603 27.4075 177.811 27.5332 178.018 27.66C178.244 27.7986 178.314 28.0938 178.176 28.3186C178.154 28.3538 178.129 28.3847 178.101 28.4124C177.948 28.5616 177.708 28.5936 177.517 28.4763C177.316 28.3527 177.113 28.2312 176.909 28.1119C176.68 27.9776 176.604 27.6845 176.738 27.4565V27.4554Z" fill="#BDD0FB"/>
<path d="M177.784 74.3856C178.007 74.3078 178.23 74.2278 178.452 74.1469C178.7 74.0552 178.975 74.1831 179.067 74.4314C179.134 74.6147 179.083 74.8129 178.951 74.9408C178.904 74.9856 178.847 75.0229 178.782 75.0463C178.555 75.1305 178.326 75.2115 178.097 75.2914C177.848 75.3777 177.574 75.2456 177.487 74.9962C177.401 74.7458 177.533 74.473 177.783 74.3866L177.784 74.3856Z" fill="#BDD0FB"/>
<path d="M175.254 26.1289C175.472 26.2366 175.689 26.3463 175.903 26.4582C176.138 26.5808 176.23 26.8696 176.107 27.104C176.083 27.1509 176.052 27.1914 176.016 27.2266C175.873 27.3662 175.649 27.4056 175.461 27.3076C175.251 27.1989 175.041 27.0912 174.829 26.9868C174.592 26.8696 174.495 26.5818 174.613 26.3453C174.729 26.1076 175.018 26.0106 175.254 26.1279V26.1289Z" fill="#BDD0FB"/>
<path d="M173.226 75.702C173.457 75.6466 173.687 75.5891 173.918 75.5305C174.175 75.4655 174.435 75.62 174.501 75.8768C174.545 76.0495 174.489 76.2232 174.37 76.3393C174.313 76.3958 174.239 76.4384 174.155 76.4598C173.92 76.5194 173.686 76.577 173.451 76.6345C173.195 76.6963 172.936 76.5386 172.873 76.2818C172.811 76.025 172.969 75.7649 173.226 75.7031V75.702Z" fill="#BDD0FB"/>
<path d="M175.522 75.0983C175.75 75.0322 175.977 74.9651 176.204 74.8958C176.457 74.8191 176.725 74.9608 176.802 75.2145C176.856 75.3924 176.802 75.5768 176.677 75.6983C176.624 75.7494 176.559 75.7889 176.483 75.8123C176.252 75.8827 176.02 75.9519 175.787 76.0191C175.534 76.0926 175.268 75.9455 175.195 75.6919C175.121 75.4383 175.268 75.1718 175.522 75.0994V75.0983Z" fill="#BDD0FB"/>
<path d="M161.212 22.6731C161.455 22.6795 161.697 22.6881 161.94 22.7008C162.205 22.7136 162.408 22.9385 162.395 23.2017C162.389 23.3285 162.335 23.4404 162.25 23.5225C162.159 23.6109 162.032 23.6642 161.893 23.6568C161.657 23.6461 161.421 23.6365 161.185 23.6301C160.92 23.6227 160.711 23.4031 160.719 23.1378C160.725 22.8735 160.947 22.6646 161.211 22.6721L161.212 22.6731Z" fill="#BDD0FB"/>
<path d="M156.363 22.8801C156.605 22.8535 156.846 22.829 157.088 22.8066C157.351 22.7832 157.585 22.9771 157.608 23.2403C157.622 23.3906 157.565 23.5302 157.464 23.6272C157.389 23.7007 157.287 23.7497 157.174 23.7604C156.939 23.7817 156.703 23.8052 156.469 23.8318C156.206 23.8606 155.969 23.6719 155.94 23.4087C155.912 23.1455 156.1 22.9089 156.363 22.8801Z" fill="#BDD0FB"/>
<path d="M156.725 78.0056C156.963 77.9918 157.201 77.9769 157.439 77.9619C157.703 77.9449 157.93 78.1452 157.947 78.4095C157.957 78.5555 157.899 78.6898 157.803 78.7836C157.724 78.8603 157.618 78.9104 157.5 78.9179C157.26 78.9328 157.02 78.9477 156.781 78.9616C156.516 78.9776 156.29 78.7751 156.274 78.5108C156.258 78.2465 156.461 78.0195 156.725 78.0046V78.0056Z" fill="#BDD0FB"/>
<path d="M154.343 78.1241C154.581 78.1145 154.819 78.1049 155.058 78.0942C155.322 78.0825 155.546 78.2871 155.557 78.5514C155.564 78.6942 155.507 78.8242 155.412 78.9159C155.331 78.9947 155.222 79.0448 155.1 79.0512C154.86 79.0619 154.621 79.0715 154.38 79.0811C154.116 79.0917 153.893 78.885 153.883 78.6207C153.873 78.3564 154.078 78.1337 154.344 78.1241H154.343Z" fill="#BDD0FB"/>
<path d="M158.784 22.6944C159.027 22.6848 159.27 22.6762 159.512 22.672C159.776 22.6666 159.996 22.8755 160.001 23.1409C160.004 23.2794 159.948 23.4052 159.856 23.4947C159.772 23.5757 159.659 23.6268 159.532 23.63C159.295 23.6354 159.06 23.6428 158.823 23.6524C158.559 23.6631 158.335 23.4585 158.325 23.1942C158.314 22.9299 158.519 22.7071 158.783 22.6954L158.784 22.6944Z" fill="#BDD0FB"/>
<path d="M153.964 23.2304C154.202 23.1867 154.442 23.1462 154.681 23.1079C154.942 23.0652 155.188 23.2432 155.23 23.5043C155.255 23.6642 155.199 23.8187 155.09 23.9242C155.022 23.9903 154.934 24.0372 154.833 24.0531C154.6 24.0904 154.368 24.1309 154.134 24.1725C153.874 24.2194 153.625 24.0467 153.578 23.7867C153.531 23.5267 153.704 23.2773 153.964 23.2304Z" fill="#BDD0FB"/>
<path d="M151.958 78.1969C152.197 78.1916 152.435 78.1863 152.673 78.1799C152.938 78.1724 153.158 78.3813 153.165 78.6456C153.169 78.7852 153.112 78.912 153.02 79.0026C152.937 79.0836 152.824 79.1347 152.699 79.1379C152.459 79.1443 152.218 79.1497 151.978 79.155C151.713 79.1603 151.494 78.9504 151.488 78.6861C151.483 78.4218 151.693 78.2023 151.957 78.1969H151.958Z" fill="#BDD0FB"/>
<path d="M159.106 77.8484C159.343 77.8302 159.581 77.81 159.819 77.7908C160.082 77.7684 160.314 77.9645 160.336 78.2277C160.349 78.3769 160.292 78.5155 160.193 78.6114C160.116 78.686 160.015 78.735 159.9 78.7446C159.66 78.7648 159.42 78.784 159.18 78.8032C158.916 78.8235 158.686 78.6263 158.665 78.3631C158.645 78.0999 158.842 77.8697 159.106 77.8484Z" fill="#BDD0FB"/>
<path d="M163.851 77.3681C164.088 77.3382 164.324 77.3084 164.561 77.2775C164.823 77.2434 165.064 77.4278 165.098 77.6899C165.118 77.8455 165.062 77.9947 164.956 78.0959C164.885 78.1652 164.791 78.2132 164.685 78.227C164.446 78.2579 164.207 78.2888 163.968 78.3187C163.706 78.3517 163.467 78.1652 163.433 77.9031C163.4 77.6409 163.587 77.4011 163.849 77.3691L163.851 77.3681Z" fill="#BDD0FB"/>
<path d="M163.634 22.8226C163.876 22.846 164.118 22.8716 164.359 22.9004C164.622 22.9313 164.809 23.17 164.778 23.4322C164.765 23.5462 164.712 23.6453 164.637 23.7199C164.536 23.8169 164.396 23.8702 164.247 23.852C164.012 23.8243 163.778 23.7988 163.542 23.7764C163.279 23.7508 163.086 23.5174 163.112 23.2531C163.137 22.9899 163.371 22.797 163.635 22.8226H163.634Z" fill="#BDD0FB"/>
<path d="M161.48 77.6387C161.718 77.6153 161.955 77.5908 162.192 77.5652C162.456 77.5375 162.692 77.7272 162.72 77.9904C162.736 78.1428 162.679 78.2867 162.577 78.3858C162.502 78.4582 162.405 78.5062 162.295 78.5179C162.056 78.5435 161.816 78.568 161.577 78.5925C161.314 78.6191 161.08 78.4273 161.053 78.1641C161.027 77.9009 161.219 77.6664 161.481 77.6398L161.48 77.6387Z" fill="#BDD0FB"/>
<path d="M178.78 28.7094C178.93 28.4899 179.227 28.4345 179.446 28.5837C179.646 28.7211 179.845 28.8597 180.043 29.0014C180.258 29.1549 180.308 29.4543 180.153 29.6696C180.136 29.6931 180.117 29.7154 180.097 29.7346C179.934 29.8923 179.676 29.9168 179.485 29.7804C179.293 29.643 179.099 29.5076 178.904 29.3744C178.686 29.2252 178.629 28.9268 178.779 28.7084L178.78 28.7094Z" fill="#BDD0FB"/>
<path d="M166.043 23.1476C166.283 23.1881 166.522 23.2307 166.761 23.2765C167.021 23.3266 167.191 23.5771 167.141 23.8371C167.122 23.9373 167.073 24.0246 167.005 24.0907C166.896 24.1962 166.74 24.2484 166.58 24.2175C166.349 24.1728 166.117 24.1312 165.884 24.0918C165.622 24.0481 165.447 23.8009 165.491 23.5398C165.535 23.2787 165.782 23.1028 166.043 23.1476Z" fill="#BDD0FB"/>
<path d="M188.317 67.9746C188.504 67.7785 188.8 67.769 188.994 67.948C189.188 68.1281 189.199 68.4307 189.02 68.6247C188.853 68.8048 188.684 68.9817 188.51 69.1565L188.504 69.1618C188.316 69.343 188.018 69.3419 187.832 69.1575C187.645 68.971 187.645 68.6673 187.831 68.4798C187.996 68.3146 188.158 68.1462 188.317 67.9746Z" fill="#BDD0FB"/>
<path d="M193.466 51.5718C193.204 51.607 192.963 51.4237 192.927 51.1615C192.895 50.9282 192.861 50.6948 192.823 50.4625C192.78 50.2014 192.958 49.9552 193.219 49.9126C193.48 49.8699 193.726 50.0479 193.769 50.309C193.808 50.5498 193.844 50.7907 193.877 51.0326C193.898 51.1893 193.84 51.3384 193.735 51.4408C193.665 51.51 193.572 51.5569 193.466 51.5718Z" fill="#BDD0FB"/>
<path d="M193.644 53.9645C193.38 53.9763 193.156 53.7717 193.144 53.5074C193.134 53.2729 193.12 53.0374 193.103 52.8029C193.084 52.5397 193.281 52.3095 193.546 52.2903C193.81 52.2712 194.04 52.4694 194.059 52.7337C194.077 52.9777 194.091 53.2207 194.102 53.4647C194.109 53.6075 194.052 53.7386 193.958 53.8303C193.877 53.9091 193.768 53.9592 193.645 53.9656L193.644 53.9645Z" fill="#BDD0FB"/>
<path d="M193.086 49.2084C192.828 49.266 192.571 49.104 192.513 48.8461C192.461 48.6159 192.407 48.3868 192.35 48.1577C192.286 47.9008 192.442 47.6408 192.699 47.5769C192.956 47.5129 193.216 47.6685 193.28 47.9253C193.338 48.1619 193.395 48.3985 193.448 48.6361C193.486 48.8045 193.43 48.9729 193.314 49.0848C193.253 49.1445 193.175 49.1882 193.086 49.2084Z" fill="#BDD0FB"/>
<path d="M193.595 56.3629C193.331 56.3501 193.127 56.1252 193.141 55.8609C193.153 55.6265 193.16 55.392 193.166 55.1565C193.171 54.8922 193.391 54.6823 193.654 54.6876C193.918 54.6929 194.128 54.9114 194.123 55.1757C194.117 55.4208 194.11 55.6648 194.097 55.9089C194.091 56.0346 194.036 56.1476 193.952 56.2286C193.861 56.3181 193.733 56.3703 193.594 56.3629H193.595Z" fill="#BDD0FB"/>
<path d="M193.305 58.7353C193.044 58.6948 192.864 58.4507 192.904 58.1896C192.939 57.9573 192.972 57.725 193 57.4916C193.032 57.2295 193.271 57.0419 193.534 57.0739C193.796 57.1058 193.984 57.3445 193.952 57.6078C193.922 57.8508 193.889 58.0937 193.852 58.3356C193.836 58.4422 193.784 58.536 193.712 58.6063C193.607 58.7076 193.459 58.7598 193.305 58.7363V58.7353Z" fill="#BDD0FB"/>
<path d="M188.401 38.2715C188.183 38.4217 187.885 38.3674 187.735 38.15C187.6 37.956 187.464 37.7631 187.325 37.5724C187.171 37.3582 187.218 37.0609 187.432 36.9031C187.646 36.7486 187.946 36.7966 188.101 37.0097C188.244 37.2069 188.384 37.4051 188.522 37.6044C188.657 37.7994 188.628 38.0605 188.462 38.2203C188.443 38.2384 188.423 38.2555 188.401 38.2715Z" fill="#BDD0FB"/>
<path d="M189.666 40.3023C189.438 40.4366 189.145 40.362 189.01 40.134C188.889 39.9304 188.767 39.729 188.642 39.5286C188.503 39.3038 188.573 39.0075 188.797 38.869C189.022 38.7294 189.317 38.7986 189.456 39.0235C189.584 39.2303 189.71 39.4381 189.834 39.6469C189.949 39.8409 189.91 40.0839 189.756 40.2341C189.729 40.2597 189.699 40.2832 189.665 40.3034L189.666 40.3023Z" fill="#BDD0FB"/>
<path d="M192.5 46.8834C192.248 46.9623 191.979 46.8216 191.9 46.569C191.83 46.3442 191.758 46.1214 191.682 45.8987C191.597 45.6483 191.731 45.3765 191.981 45.2913C192.232 45.206 192.504 45.3403 192.589 45.5907C192.667 45.8209 192.742 46.0522 192.815 46.2856C192.87 46.4635 192.816 46.65 192.691 46.7726C192.639 46.8237 192.575 46.8632 192.5 46.8855V46.8834Z" fill="#BDD0FB"/>
<path d="M179.988 73.5418C180.205 73.4502 180.422 73.3564 180.638 73.2605C180.88 73.1528 181.162 73.2605 181.271 73.5034C181.355 73.6921 181.307 73.9063 181.167 74.0427C181.128 74.081 181.081 74.113 181.029 74.1365C180.807 74.2356 180.584 74.3315 180.361 74.4253C180.116 74.5276 179.836 74.4135 179.733 74.1695C179.631 73.9254 179.745 73.6441 179.989 73.5418H179.988Z" fill="#BDD0FB"/>
<path d="M190.778 42.4234C190.541 42.5417 190.254 42.4447 190.135 42.2081C190.03 41.9971 189.922 41.7861 189.812 41.5772C189.69 41.3427 189.78 41.0529 190.014 40.9303C190.248 40.8067 190.537 40.8973 190.661 41.1317C190.774 41.347 190.885 41.5633 190.992 41.7807C191.088 41.9726 191.043 42.1964 190.897 42.3381C190.863 42.3722 190.823 42.401 190.777 42.4234H190.778Z" fill="#BDD0FB"/>
<path d="M191.731 44.6162C191.486 44.7154 191.207 44.5971 191.107 44.352C191.041 44.19 190.973 44.0291 190.905 43.8692L190.833 43.7008C190.727 43.4578 190.839 43.1754 191.081 43.071C191.324 42.9655 191.606 43.0774 191.711 43.3193L191.784 43.4909C191.855 43.6571 191.925 43.8234 191.993 43.9907C192.069 44.1772 192.019 44.3829 191.883 44.515C191.841 44.5566 191.789 44.5907 191.73 44.6152L191.731 44.6162Z" fill="#BDD0FB"/>
<path d="M192.423 60.4806C192.485 60.2546 192.542 60.0287 192.596 59.7996C192.657 59.5417 192.915 59.3818 193.172 59.4426C193.43 59.5033 193.589 59.7612 193.529 60.018C193.472 60.2568 193.412 60.4955 193.347 60.731C193.324 60.8162 193.279 60.8908 193.22 60.9484C193.102 61.0624 192.929 61.1136 192.759 61.0667C192.504 60.9974 192.353 60.7342 192.423 60.4784V60.4806Z" fill="#BDD0FB"/>
<path d="M184.167 71.381C184.366 71.2552 184.563 71.1273 184.757 70.9962C184.976 70.8481 185.274 70.9057 185.422 71.1252C185.554 71.3202 185.522 71.5781 185.359 71.7369C185.339 71.7561 185.317 71.7742 185.293 71.7902C185.09 71.9266 184.887 72.0598 184.68 72.1909C184.456 72.3326 184.161 72.2655 184.019 72.0417C183.879 71.8179 183.945 71.5238 184.167 71.381Z" fill="#BDD0FB"/>
<path d="M185.464 34.4886C185.269 34.6676 184.966 34.6559 184.787 34.4609C184.627 34.2872 184.465 34.1145 184.301 33.944C184.119 33.7533 184.124 33.4517 184.313 33.2684L184.315 33.2663C184.506 33.083 184.81 33.0894 184.993 33.2801C185.161 33.4549 185.328 33.6318 185.492 33.8108C185.667 34.0026 185.659 34.2989 185.474 34.479C185.47 34.4822 185.467 34.4854 185.464 34.4875V34.4886Z" fill="#BDD0FB"/>
<path d="M182.61 32.3022C182.414 32.1243 182.4 31.8216 182.578 31.6255C182.757 31.4294 183.059 31.4156 183.255 31.5936C183.435 31.7566 183.613 31.9218 183.789 32.0891C183.98 32.2713 183.989 32.574 183.807 32.7658C183.802 32.7711 183.797 32.7754 183.793 32.7807C183.61 32.9587 183.318 32.9619 183.13 32.785C182.958 32.623 182.785 32.4621 182.61 32.3033V32.3022Z" fill="#BDD0FB"/>
<path d="M180.728 30.0959C180.891 29.8892 181.194 29.8529 181.401 30.017C181.592 30.1673 181.78 30.3197 181.968 30.4742C182.171 30.6426 182.201 30.9442 182.033 31.1488C182.021 31.1627 182.009 31.1754 181.996 31.1882C181.824 31.3555 181.549 31.3705 181.358 31.2138C181.176 31.0635 180.992 30.9154 180.807 30.7684C180.599 30.6042 180.564 30.3026 180.728 30.0959Z" fill="#BDD0FB"/>
<path d="M182.126 72.5451C182.336 72.4375 182.544 72.3277 182.75 72.2148C182.983 72.088 183.274 72.1743 183.4 72.4055C183.506 72.5984 183.464 72.8318 183.314 72.9789C183.283 73.0087 183.249 73.0343 183.21 73.0556C182.996 73.1718 182.781 73.2858 182.565 73.3966C182.329 73.5171 182.041 73.4243 181.92 73.1899C181.8 72.9544 181.891 72.6656 182.128 72.5451H182.126Z" fill="#BDD0FB"/>
<path d="M190.656 64.7927C190.771 64.5903 190.882 64.3857 190.989 64.18C191.112 63.9466 191.4 63.8539 191.635 63.9754C191.87 64.0969 191.961 64.3867 191.84 64.6212C191.727 64.8386 191.61 65.0549 191.488 65.268C191.466 65.3075 191.437 65.3437 191.406 65.3746C191.257 65.5196 191.024 65.5547 190.835 65.4471C190.606 65.316 190.526 65.0229 190.657 64.7938L190.656 64.7927Z" fill="#BDD0FB"/>
<path d="M191.676 62.6945C191.765 62.4782 191.849 62.2608 191.929 62.0413C192.02 61.793 192.295 61.6651 192.543 61.7557C192.791 61.8463 192.919 62.1212 192.828 62.3695C192.744 62.6008 192.656 62.8288 192.563 63.0569C192.538 63.1198 192.499 63.1752 192.453 63.2199C192.321 63.3489 192.12 63.3936 191.939 63.3201C191.693 63.2199 191.576 62.9407 191.676 62.6956V62.6945Z" fill="#BDD0FB"/>
<path d="M186.613 35.094C186.769 35.2805 186.922 35.4681 187.075 35.6578C187.23 35.8517 187.21 36.1309 187.034 36.3004C187.024 36.3111 187.012 36.3217 186.999 36.3313C186.792 36.4965 186.491 36.4634 186.326 36.2567C186.178 36.0723 186.028 35.889 185.877 35.7079C185.708 35.5054 185.734 35.207 185.938 35.0333C186.141 34.8638 186.443 34.8905 186.612 35.094H186.613Z" fill="#BDD0FB"/>
<path d="M189.498 66.5551C189.595 66.4262 189.69 66.2951 189.783 66.164C189.935 65.9466 190.235 65.8965 190.451 66.0489C190.667 66.2013 190.718 66.5008 190.566 66.7171C190.468 66.8567 190.368 66.9942 190.265 67.1317L190.129 67.3107C190.114 67.3299 190.098 67.348 190.082 67.364C189.915 67.527 189.648 67.5462 189.458 67.4002C189.248 67.2393 189.207 66.9388 189.368 66.7288L189.498 66.5573V66.5551Z" fill="#BDD0FB"/>
<path d="M186.082 70.0342C186.265 69.8893 186.446 69.7412 186.626 69.5898C186.827 69.4193 187.13 69.4438 187.3 69.6463C187.464 69.8403 187.447 70.1248 187.268 70.2996C187.261 70.307 187.252 70.3145 187.244 70.322C187.057 70.4797 186.867 70.6353 186.675 70.7866C186.467 70.9507 186.165 70.9145 186.002 70.7077C185.838 70.4999 185.872 70.1962 186.081 70.0353L186.082 70.0342Z" fill="#BDD0FB"/>
<path d="M151.588 23.7465C151.823 23.6868 152.059 23.6293 152.296 23.5749C152.554 23.5153 152.811 23.6762 152.871 23.9341C152.91 24.1035 152.854 24.273 152.738 24.3859C152.677 24.4445 152.6 24.4882 152.512 24.5085C152.281 24.5618 152.051 24.6172 151.823 24.6758C151.566 24.7408 151.306 24.5852 151.241 24.3294C151.176 24.0726 151.332 23.8126 151.588 23.7476V23.7465Z" fill="#BDD0FB"/>
<path d="M87.3345 76.9646C87.5733 76.9348 87.812 76.906 88.0507 76.8783C88.3139 76.8474 88.5516 77.036 88.5825 77.2982C88.6006 77.4517 88.543 77.5977 88.4397 77.6978C88.3672 77.7682 88.2702 77.8172 88.1615 77.83C87.9249 77.8577 87.6894 77.8865 87.4528 77.9152C87.1907 77.9483 86.9509 77.7618 86.9179 77.4996C86.8848 77.2375 87.0713 76.9977 87.3335 76.9646H87.3345Z" fill="#BDD0FB"/>
<path d="M84.9462 77.2901C85.1839 77.2538 85.4226 77.2187 85.6603 77.1846C85.9224 77.1473 86.1654 77.3284 86.2027 77.5906C86.2251 77.7483 86.1686 77.8996 86.062 78.003C85.9917 78.0712 85.9011 78.1181 85.7967 78.133C85.5611 78.1671 85.3256 78.2023 85.0901 78.2375C84.828 78.2769 84.5839 78.0968 84.5445 77.8357C84.505 77.5746 84.6851 77.3295 84.9462 77.2901Z" fill="#BDD0FB"/>
<path d="M80.2093 78.1466C80.4448 78.0976 80.6814 78.0486 80.9169 78.0017C81.1759 77.9495 81.4284 78.1178 81.4806 78.3779C81.5137 78.5431 81.4572 78.7061 81.3442 78.8159C81.2803 78.8777 81.1982 78.9224 81.1045 78.9416C80.8711 78.9885 80.6377 79.0365 80.4054 79.0844C80.1464 79.1388 79.8928 78.9725 79.8384 78.7136C79.7841 78.4546 79.9503 78.1999 80.2093 78.1466Z" fill="#BDD0FB"/>
<path d="M82.5731 77.6863C82.8097 77.6437 83.0474 77.6021 83.285 77.5616C83.5461 77.5169 83.7934 77.6927 83.8381 77.9528C83.8658 78.1147 83.8083 78.2714 83.6996 78.378C83.6324 78.443 83.5461 78.4888 83.447 78.5058C83.2126 78.5463 82.9781 78.5868 82.7437 78.6295C82.4836 78.6764 82.2343 78.5037 82.1874 78.2426C82.1405 77.9826 82.3131 77.7332 82.5742 77.6863H82.5731Z" fill="#BDD0FB"/>
<path d="M77.8604 78.6776C78.0949 78.6211 78.3293 78.5657 78.5638 78.5124C78.8217 78.4528 79.0785 78.6137 79.1382 78.8716C79.1776 79.041 79.1211 79.2105 79.005 79.3234C78.9442 79.382 78.8675 79.4257 78.779 79.446C78.5467 79.4993 78.3155 79.5547 78.0831 79.6101C77.8263 79.6719 77.5673 79.5131 77.5055 79.2563C77.4437 78.9984 77.6025 78.7405 77.8593 78.6787L77.8604 78.6776Z" fill="#BDD0FB"/>
<path d="M149.57 78.2241C149.809 78.223 150.048 78.2209 150.286 78.2188C150.551 78.2166 150.767 78.4287 150.77 78.693C150.771 78.8294 150.716 78.953 150.625 79.0415C150.54 79.1246 150.424 79.1758 150.296 79.1768C150.056 79.179 149.816 79.1811 149.575 79.1821C149.311 79.1832 149.096 78.9701 149.094 78.7058C149.093 78.4415 149.306 78.2252 149.57 78.2241Z" fill="#BDD0FB"/>
<path d="M75.5244 79.2726C75.7568 79.2086 75.9901 79.1468 76.2235 79.0861C76.4793 79.0189 76.7415 79.1724 76.8086 79.4282C76.8544 79.6019 76.799 79.7777 76.6786 79.8939C76.621 79.9493 76.5496 79.9919 76.4665 80.0132C76.2363 80.074 76.0061 80.1347 75.777 80.1976C75.5223 80.2669 75.258 80.1166 75.1888 79.8619C75.1195 79.6072 75.2697 79.3429 75.5244 79.2736V79.2726Z" fill="#BDD0FB"/>
<path d="M96.9178 76.1977C97.1586 76.1881 97.3984 76.1796 97.6382 76.1721C97.9025 76.1636 98.1242 76.3704 98.1327 76.6346C98.137 76.7753 98.0815 76.9043 97.9878 76.9948C97.9057 77.0748 97.7938 77.1259 97.6702 77.1291C97.4315 77.1376 97.1928 77.1462 96.954 77.1547C96.6897 77.1654 96.467 76.9586 96.4574 76.6943C96.4468 76.43 96.6535 76.2073 96.9178 76.1977Z" fill="#BDD0FB"/>
<path d="M89.7198 76.6974C89.9585 76.674 90.1983 76.6505 90.438 76.6271C90.7013 76.6026 90.9346 76.7955 90.9602 77.0587C90.9741 77.209 90.9176 77.3496 90.8164 77.4477C90.7407 77.5212 90.6405 77.5702 90.5275 77.5809C90.2899 77.6033 90.0533 77.6267 89.8157 77.6502C89.5524 77.6768 89.318 77.485 89.2914 77.2218C89.2658 76.9585 89.4576 76.7241 89.7198 76.6974Z" fill="#BDD0FB"/>
<path d="M99.3195 76.1233C99.5593 76.118 99.8002 76.1137 100.04 76.1094C100.304 76.1052 100.523 76.3162 100.527 76.5805C100.529 76.718 100.474 76.8437 100.382 76.9322C100.298 77.0142 100.183 77.0654 100.057 77.0675C99.8183 77.0718 99.5796 77.076 99.3409 77.0813C99.0766 77.0877 98.857 76.8778 98.8517 76.6135C98.8453 76.3492 99.0552 76.1297 99.3195 76.1244V76.1233Z" fill="#BDD0FB"/>
<path d="M94.5142 76.3135C94.754 76.2997 94.9937 76.2858 95.2346 76.2741C95.4989 76.2603 95.7237 76.4627 95.7376 76.727C95.745 76.8709 95.6886 77.003 95.5927 77.0958C95.5127 77.1735 95.404 77.2236 95.2847 77.23C95.046 77.2428 94.8083 77.2556 94.5696 77.2695C94.3053 77.2854 94.0794 77.083 94.0634 76.8187C94.0474 76.5544 94.2499 76.3274 94.5142 76.3125V76.3135Z" fill="#BDD0FB"/>
<path d="M92.1202 76.4775C92.36 76.4583 92.5997 76.4402 92.8395 76.4232C93.1038 76.404 93.3329 76.6022 93.3521 76.8665C93.3628 77.0136 93.3063 77.15 93.2082 77.2448C93.1305 77.3205 93.026 77.3706 92.9099 77.3791C92.6722 77.3961 92.4346 77.4143 92.1958 77.4324C91.9326 77.4526 91.7014 77.2555 91.6811 76.9922C91.6609 76.729 91.858 76.4978 92.1212 76.4775H92.1202Z" fill="#BDD0FB"/>
<path d="M55.8396 88.2194C56.0379 88.0808 56.2371 87.9444 56.4364 87.8091C56.656 87.661 56.9533 87.7174 57.1014 87.937C57.2336 88.132 57.2027 88.3899 57.0385 88.5497C57.0183 88.5689 56.997 88.587 56.9735 88.603C56.7774 88.7362 56.5814 88.8705 56.3863 89.0069C56.1689 89.1582 55.8705 89.105 55.7192 88.8876C55.5679 88.6712 55.6201 88.3739 55.8386 88.2204L55.8396 88.2194Z" fill="#BDD0FB"/>
<path d="M101.725 76.0959C101.965 76.0948 102.206 76.0938 102.447 76.0938C102.711 76.0938 102.926 76.308 102.926 76.5723C102.926 76.7076 102.871 76.8291 102.781 76.9165C102.695 76.9996 102.578 77.0518 102.448 77.0518C102.209 77.0518 101.97 77.0529 101.732 77.0539C101.467 77.055 101.251 76.8419 101.25 76.5776C101.249 76.3133 101.462 76.0969 101.726 76.0959H101.725Z" fill="#BDD0FB"/>
<path d="M53.8906 89.6429C54.0824 89.4959 54.2742 89.3499 54.4671 89.2049C54.6792 89.0461 54.9786 89.0898 55.1374 89.3019C55.2834 89.4969 55.2579 89.7666 55.0884 89.9317C55.0735 89.9456 55.0586 89.9594 55.0415 89.9722C54.8518 90.114 54.6621 90.2578 54.4746 90.4028C54.2646 90.5637 53.9641 90.5243 53.8032 90.3143C53.6412 90.1044 53.6796 89.8028 53.8916 89.6429H53.8906Z" fill="#BDD0FB"/>
<path d="M50.2067 92.7735C50.3836 92.6073 50.5605 92.4442 50.7396 92.2812C50.9346 92.1032 51.2383 92.1171 51.4163 92.3121C51.591 92.5039 51.5814 92.7991 51.396 92.9781C51.3928 92.9813 51.3886 92.9856 51.3854 92.9888C51.2106 93.1486 51.0369 93.3096 50.8632 93.4716C50.6703 93.6527 50.3676 93.6431 50.1865 93.4502C50.0053 93.2573 50.0096 92.9547 50.2078 92.7735H50.2067Z" fill="#BDD0FB"/>
<path d="M57.848 86.8765C58.0516 86.7476 58.2572 86.6197 58.4629 86.4929C58.6878 86.3543 58.983 86.4247 59.1215 86.6506C59.2409 86.8456 59.2046 87.0918 59.048 87.2452C59.0235 87.2698 58.9958 87.2911 58.9649 87.3103C58.7624 87.4349 58.561 87.5607 58.3606 87.6875C58.1368 87.8292 57.8416 87.7621 57.6999 87.5394C57.5581 87.3156 57.6232 87.0215 57.848 86.8786V86.8765Z" fill="#BDD0FB"/>
<path d="M52.0084 91.1612C52.1927 91.0046 52.3782 90.85 52.5636 90.6955C52.7682 90.5271 53.0698 90.5559 53.2382 90.7605C53.398 90.9545 53.3799 91.2369 53.203 91.4085C53.1934 91.417 53.1838 91.4266 53.1732 91.4351C52.9909 91.5854 52.8087 91.7378 52.6286 91.8912C52.4272 92.0628 52.1245 92.0383 51.954 91.8358C51.7824 91.6344 51.8069 91.3221 52.0094 91.1612H52.0084Z" fill="#BDD0FB"/>
<path d="M64.2009 83.4029C64.4193 83.3006 64.6388 83.1983 64.8584 83.0981C65.0992 82.9883 65.3827 83.0938 65.4935 83.3347C65.5799 83.5244 65.533 83.7407 65.3923 83.8771C65.3539 83.9144 65.3092 83.9453 65.257 83.9688C65.0406 84.0679 64.8243 84.168 64.609 84.2693C64.3692 84.3822 64.0847 84.2789 63.9717 84.0391C63.8588 83.8004 63.9611 83.5148 64.2019 83.4018L64.2009 83.4029Z" fill="#BDD0FB"/>
<path d="M68.6428 81.5123C68.8687 81.4259 69.0947 81.3407 69.3206 81.2565C69.5689 81.1648 69.8438 81.2906 69.9366 81.5389C70.0048 81.7222 69.9525 81.9215 69.8215 82.0494C69.7756 82.0941 69.7192 82.1304 69.6542 82.1549C69.4314 82.238 69.2076 82.3211 68.986 82.4064C68.7387 82.5012 68.4616 82.3776 68.3679 82.1304C68.273 81.8831 68.3966 81.606 68.6439 81.5123H68.6428Z" fill="#BDD0FB"/>
<path d="M66.4079 82.4172C66.6296 82.3223 66.8523 82.2296 67.0761 82.138C67.3212 82.0367 67.6004 82.154 67.7017 82.398C67.7784 82.5845 67.7294 82.7923 67.5929 82.9245C67.5503 82.966 67.4992 82.9991 67.4416 83.0236C67.2221 83.1142 67.0026 83.2058 66.783 83.2996C66.5401 83.403 66.2587 83.29 66.1553 83.0459C66.052 82.8019 66.166 82.5206 66.409 82.4183L66.4079 82.4172Z" fill="#BDD0FB"/>
<path d="M62.0392 84.4767C62.2534 84.3649 62.4687 84.2551 62.685 84.1453C62.9216 84.026 63.2093 84.1208 63.3287 84.3574C63.4256 84.5492 63.3809 84.7751 63.2349 84.9169C63.2008 84.9499 63.1614 84.9787 63.1166 85.0011C62.9045 85.1076 62.6925 85.2163 62.4815 85.3261C62.247 85.4487 61.9571 85.357 61.8356 85.1226C61.7131 84.8881 61.8047 84.5982 62.0392 84.4767Z" fill="#BDD0FB"/>
<path d="M59.9193 85.6287C60.1293 85.5083 60.3392 85.3889 60.5502 85.2717C60.7815 85.1427 61.0735 85.2258 61.2024 85.4571C61.3101 85.6511 61.2696 85.8866 61.1182 86.0336C61.0884 86.0624 61.0554 86.0869 61.017 86.1082C60.8092 86.2244 60.6024 86.3406 60.3968 86.4588C60.1676 86.591 59.8746 86.5111 59.7435 86.2819C59.6113 86.0528 59.6913 85.7587 59.9204 85.6276L59.9193 85.6287Z" fill="#BDD0FB"/>
<path d="M70.9096 80.6854C71.1376 80.6066 71.3667 80.5298 71.5959 80.4542C71.8474 80.371 72.1181 80.5064 72.2012 80.7579C72.2609 80.938 72.2076 81.1287 72.0797 81.2524C72.0296 81.3014 71.9678 81.3397 71.8975 81.3632C71.6715 81.4378 71.4456 81.5145 71.2207 81.5923C70.9703 81.6786 70.6986 81.5454 70.6122 81.295C70.5259 81.0446 70.6591 80.7717 70.9096 80.6865V80.6854Z" fill="#BDD0FB"/>
<path d="M73.206 79.9399C73.4362 79.8695 73.6674 79.7992 73.8987 79.731C74.1523 79.6553 74.4187 79.8003 74.4944 80.0539C74.5466 80.2308 74.4923 80.4141 74.3687 80.5335C74.3154 80.5857 74.2482 80.6262 74.1715 80.6486C73.9434 80.7157 73.7154 80.785 73.4873 80.8542C73.2348 80.932 72.9662 80.7892 72.8884 80.5367C72.8106 80.283 72.9534 80.0155 73.206 79.9378V79.9399Z" fill="#BDD0FB"/>
<path d="M140.014 78.0312L140.731 78.0611C140.995 78.0717 141.201 78.2945 141.191 78.5588C141.186 78.6867 141.132 78.8007 141.046 78.8838C140.956 78.9723 140.83 79.0245 140.694 79.0191L139.974 78.9893C139.71 78.9776 139.504 78.7549 139.516 78.4906C139.528 78.2273 139.751 78.0217 140.015 78.0323L140.014 78.0312Z" fill="#BDD0FB"/>
<path d="M142.405 78.1174L143.122 78.1398C143.386 78.1473 143.594 78.3689 143.587 78.6332C143.582 78.7632 143.528 78.8783 143.442 78.9625C143.352 79.0499 143.229 79.1021 143.093 79.0979L142.374 79.0755C142.11 79.067 141.902 78.8453 141.91 78.581C141.919 78.3167 142.14 78.1089 142.405 78.1174Z" fill="#BDD0FB"/>
<path d="M132.849 77.6426L133.566 77.6873C133.831 77.7033 134.031 77.9314 134.015 78.1946C134.007 78.3182 133.953 78.4291 133.871 78.509C133.777 78.5996 133.648 78.6518 133.508 78.6433L132.789 78.5985C132.525 78.5815 132.325 78.3545 132.341 78.0902C132.358 77.8259 132.585 77.6255 132.849 77.6415V77.6426Z" fill="#BDD0FB"/>
<path d="M142.462 28.0827C142.327 27.8557 142.401 27.5626 142.629 27.4262C142.838 27.3015 143.049 27.1811 143.26 27.0618C143.49 26.9317 143.782 27.0138 143.912 27.244C144.021 27.438 143.981 27.6745 143.829 27.8227C143.8 27.8504 143.767 27.8759 143.73 27.8962C143.524 28.0124 143.319 28.1296 143.117 28.25C142.89 28.3853 142.596 28.3097 142.46 28.0827H142.462Z" fill="#BDD0FB"/>
<path d="M135.24 77.7898L135.957 77.8303C136.222 77.8453 136.424 78.0712 136.409 78.3355C136.402 78.4602 136.349 78.5721 136.264 78.652C136.172 78.7426 136.043 78.7948 135.904 78.7863L135.186 78.7458C134.922 78.7308 134.72 78.5049 134.735 78.2406C134.75 77.9763 134.977 77.7749 135.24 77.7898Z" fill="#BDD0FB"/>
<path d="M137.63 77.9146L138.346 77.9498C138.61 77.9626 138.814 78.1874 138.801 78.4517C138.795 78.5786 138.74 78.6905 138.656 78.7725C138.564 78.862 138.438 78.9143 138.299 78.9068L137.58 78.8716C137.315 78.8578 137.112 78.6329 137.126 78.3686C137.138 78.1054 137.364 77.9018 137.629 77.9146H137.63Z" fill="#BDD0FB"/>
<path d="M149.259 24.4215C149.49 24.3458 149.721 24.2723 149.954 24.2009C150.206 24.1231 150.475 24.2659 150.552 24.5185C150.606 24.6965 150.552 24.8819 150.427 25.0023C150.375 25.0535 150.309 25.0929 150.234 25.1163C150.008 25.1856 149.783 25.257 149.559 25.3316C149.308 25.4147 149.037 25.2773 148.954 25.0268C148.871 24.7753 149.007 24.5057 149.259 24.4215Z" fill="#BDD0FB"/>
<path d="M147.185 78.2188C147.424 78.2209 147.662 78.222 147.901 78.223C148.165 78.2241 148.379 78.4394 148.378 78.7037C148.378 78.8379 148.322 78.9584 148.233 79.0458C148.147 79.1299 148.028 79.1822 147.898 79.1811C147.658 79.1811 147.417 79.179 147.177 79.1768C146.913 79.1747 146.7 78.9584 146.703 78.693C146.705 78.4287 146.922 78.2156 147.187 78.2188H147.185Z" fill="#BDD0FB"/>
<path d="M146.978 25.2616C147.203 25.1699 147.428 25.0804 147.654 24.993C147.902 24.8982 148.179 25.0207 148.274 25.268C148.345 25.4523 148.294 25.6548 148.161 25.7837C148.116 25.8274 148.061 25.8626 147.999 25.8871C147.778 25.9724 147.558 26.0598 147.34 26.1482C147.095 26.2484 146.816 26.1312 146.715 25.8861C146.615 25.6409 146.733 25.3617 146.978 25.2616Z" fill="#BDD0FB"/>
<path d="M144.794 78.1876C145.033 78.1929 145.271 78.1972 145.51 78.2015C145.774 78.2057 145.985 78.4242 145.981 78.6885C145.979 78.8206 145.924 78.9389 145.836 79.0242C145.748 79.1094 145.627 79.1616 145.494 79.1595C145.254 79.1552 145.015 79.151 144.774 79.1457C144.509 79.1403 144.299 78.9208 144.305 78.6565C144.31 78.3911 144.53 78.1823 144.794 78.1876Z" fill="#BDD0FB"/>
<path d="M145.83 26.8128C145.616 26.9129 145.404 27.0163 145.193 27.1207C144.956 27.238 144.668 27.142 144.55 26.9044C144.433 26.6678 144.529 26.3801 144.766 26.2618C144.984 26.1542 145.202 26.0476 145.423 25.9442C145.663 25.8313 145.947 25.9346 146.06 26.1744C146.15 26.3641 146.103 26.5836 145.96 26.7222C145.923 26.7584 145.879 26.7882 145.83 26.8117V26.8128Z" fill="#BDD0FB"/>
<path d="M104.123 76.0938C104.363 76.0959 104.603 76.098 104.844 76.1012C105.108 76.1044 105.32 76.3218 105.317 76.5861C105.316 76.7183 105.261 76.8376 105.172 76.924C105.085 77.0092 104.964 77.0614 104.832 77.0593C104.593 77.0561 104.354 77.054 104.115 77.0518C103.851 77.0497 103.637 76.8334 103.641 76.568C103.643 76.3037 103.859 76.0906 104.124 76.0938H104.123Z" fill="#BDD0FB"/>
<path d="M116.115 76.5312L116.834 76.5728C117.098 76.5888 117.299 76.8158 117.283 77.0801C117.276 77.2048 117.221 77.3145 117.139 77.3955C117.047 77.4861 116.917 77.5383 116.777 77.5309L116.061 77.4893C115.797 77.4744 115.595 77.2485 115.61 76.9842C115.625 76.7199 115.852 76.5185 116.115 76.5334V76.5312Z" fill="#BDD0FB"/>
<path d="M111.327 76.2891L112.047 76.321C112.311 76.3328 112.516 76.5565 112.504 76.8208C112.499 76.9477 112.443 77.0606 112.359 77.1427C112.267 77.2311 112.142 77.2844 112.004 77.278L111.287 77.2471C111.023 77.2354 110.817 77.0127 110.829 76.7484C110.84 76.4851 111.063 76.2795 111.327 76.2901V76.2891Z" fill="#BDD0FB"/>
<path d="M113.723 76.399L114.442 76.4363C114.706 76.4502 114.909 76.6761 114.895 76.9404C114.888 77.0661 114.834 77.178 114.75 77.259C114.657 77.3485 114.529 77.4008 114.391 77.3933L113.673 77.356C113.409 77.3421 113.206 77.1173 113.219 76.853C113.232 76.5898 113.458 76.3862 113.722 76.399H113.723Z" fill="#BDD0FB"/>
<path d="M130.46 77.4855L131.176 77.5335C131.44 77.5505 131.639 77.7786 131.622 78.0429C131.614 78.1665 131.561 78.2752 131.479 78.3551C131.385 78.4468 131.254 78.499 131.113 78.4894L130.396 78.4414C130.132 78.4233 129.932 78.1953 129.95 77.931C129.968 77.6667 130.197 77.4674 130.461 77.4855H130.46Z" fill="#BDD0FB"/>
<path d="M108.924 76.1956L109.644 76.2201C109.908 76.2297 110.115 76.4513 110.105 76.7156C110.101 76.8446 110.046 76.9597 109.96 77.0428C109.87 77.1302 109.745 77.1824 109.61 77.1781L108.892 77.1536C108.628 77.1451 108.421 76.9234 108.43 76.6581C108.438 76.3938 108.66 76.187 108.925 76.1956H108.924Z" fill="#BDD0FB"/>
<path d="M106.528 76.1329C106.768 76.1382 107.008 76.1436 107.249 76.15C107.513 76.1564 107.722 76.3759 107.715 76.6412C107.712 76.7713 107.657 76.8885 107.571 76.9727C107.481 77.059 107.358 77.1112 107.225 77.108C106.987 77.1016 106.747 77.0963 106.508 77.091C106.244 77.0856 106.034 76.8661 106.039 76.6018C106.044 76.3375 106.264 76.1276 106.528 76.1329Z" fill="#BDD0FB"/>
<path d="M118.508 76.6739L119.225 76.7198C119.49 76.7368 119.69 76.9649 119.673 77.2281C119.666 77.3517 119.611 77.4604 119.529 77.5403C119.435 77.6309 119.305 77.6842 119.165 77.6746L118.449 77.6288C118.184 77.6128 117.984 77.3848 118.001 77.1205C118.018 76.8572 118.245 76.6558 118.509 76.6729L118.508 76.6739Z" fill="#BDD0FB"/>
<path d="M125.683 77.1575L126.401 77.2076C126.665 77.2257 126.863 77.4549 126.845 77.7191C126.837 77.8417 126.782 77.9504 126.701 78.0293C126.606 78.1209 126.475 78.1731 126.334 78.1635L125.617 78.1134C125.353 78.0953 125.155 77.8662 125.173 77.6019C125.191 77.3376 125.42 77.1383 125.685 77.1575H125.683Z" fill="#BDD0FB"/>
<path d="M128.074 77.3293L128.79 77.3783C129.055 77.3964 129.254 77.6245 129.236 77.8888C129.227 78.0113 129.174 78.12 129.092 78.1999C128.998 78.2916 128.866 78.3438 128.725 78.3342L128.008 78.2852C127.744 78.2671 127.546 78.038 127.564 77.7737C127.582 77.5094 127.811 77.3112 128.075 77.3293H128.074Z" fill="#BDD0FB"/>
<path d="M120.902 76.8291L121.619 76.8771C121.884 76.8952 122.083 77.1233 122.065 77.3876C122.056 77.5101 122.003 77.6199 121.921 77.6987C121.827 77.7904 121.696 77.8426 121.555 77.833L120.838 77.7851C120.574 77.768 120.375 77.5389 120.392 77.2757C120.409 77.0114 120.638 76.8121 120.901 76.8291H120.902Z" fill="#BDD0FB"/>
<path d="M123.294 76.9933L124.01 77.0434C124.274 77.0615 124.473 77.2907 124.454 77.555C124.446 77.6775 124.392 77.7862 124.311 77.8651C124.217 77.9567 124.085 78.0089 123.944 77.9993L123.227 77.9493C122.963 77.9311 122.764 77.702 122.782 77.4377C122.801 77.1734 123.03 76.9752 123.294 76.9933Z" fill="#BDD0FB"/>
</g>
<defs>
<linearGradient id="paint0_linear_1634_24154" x1="400.78" y1="75.4591" x2="63.8955" y2="71.2486" gradientUnits="userSpaceOnUse">
<stop stop-color="#DAE3FE"/>
<stop offset="1" stop-color="#E9EFFD"/>
</linearGradient>
<linearGradient id="paint1_linear_1634_24154" x1="157.105" y1="17.5317" x2="149.761" y2="47.5511" gradientUnits="userSpaceOnUse">
<stop stop-color="#FE7062"/>
<stop offset="1" stop-color="#FF928E"/>
</linearGradient>
<linearGradient id="paint2_linear_1634_24154" x1="185.672" y1="63.7256" x2="191.201" y2="63.7256" gradientUnits="userSpaceOnUse">
<stop stop-color="#FE7062"/>
<stop offset="1" stop-color="#FF928E"/>
</linearGradient>
<linearGradient id="paint3_linear_1634_24154" x1="201.349" y1="17.1282" x2="206.251" y2="17.1282" gradientUnits="userSpaceOnUse">
<stop stop-color="#4042E2"/>
<stop offset="1" stop-color="#4F52FF"/>
</linearGradient>
<linearGradient id="paint4_linear_1634_24154" x1="146.473" y1="99.6453" x2="164.018" y2="99.6453" gradientUnits="userSpaceOnUse">
<stop stop-color="#4042E2"/>
<stop offset="1" stop-color="#4F52FF"/>
</linearGradient>
<linearGradient id="paint5_linear_1634_24154" x1="161.45" y1="47.013" x2="174.415" y2="29.6338" gradientUnits="userSpaceOnUse">
<stop stop-color="#4042E2"/>
<stop offset="1" stop-color="#4F52FF"/>
</linearGradient>
<linearGradient id="paint6_linear_1634_24154" x1="167.078" y1="37.5846" x2="169.687" y2="37.5846" gradientUnits="userSpaceOnUse">
<stop stop-color="#DAE3FE"/>
<stop offset="1" stop-color="#E9EFFD"/>
</linearGradient>
<linearGradient id="paint7_linear_1634_24154" x1="167.775" y1="36.0525" x2="171.942" y2="36.0525" gradientUnits="userSpaceOnUse">
<stop stop-color="#DAE3FE"/>
<stop offset="1" stop-color="#E9EFFD"/>
</linearGradient>
<linearGradient id="paint8_linear_1634_24154" x1="167.438" y1="34.904" x2="173.949" y2="34.904" gradientUnits="userSpaceOnUse">
<stop stop-color="#DAE3FE"/>
<stop offset="1" stop-color="#E9EFFD"/>
</linearGradient>
<linearGradient id="paint9_linear_1634_24154" x1="167.1" y1="33.7487" x2="175.943" y2="33.7487" gradientUnits="userSpaceOnUse">
<stop stop-color="#DAE3FE"/>
<stop offset="1" stop-color="#E9EFFD"/>
</linearGradient>
<linearGradient id="paint10_linear_1634_24154" x1="11.3195" y1="148.975" x2="49.3635" y2="97.94" gradientUnits="userSpaceOnUse">
<stop stop-color="#09005D"/>
<stop offset="1" stop-color="#1A0F91"/>
</linearGradient>
<linearGradient id="paint11_linear_1634_24154" x1="68.7072" y1="29.8166" x2="132.269" y2="143.022" gradientUnits="userSpaceOnUse">
<stop stop-color="#4042E2"/>
<stop offset="1" stop-color="#4F52FF"/>
</linearGradient>
<linearGradient id="paint12_linear_1634_24154" x1="222.421" y1="2.07746" x2="119.263" y2="72.413" gradientUnits="userSpaceOnUse">
<stop stop-color="#09005D"/>
<stop offset="1" stop-color="#1A0F91"/>
</linearGradient>
<linearGradient id="paint13_linear_1634_24154" x1="146.738" y1="60.4688" x2="120.343" y2="68.5116" gradientUnits="userSpaceOnUse">
<stop stop-color="#4042E2"/>
<stop offset="1" stop-color="#4F52FF"/>
</linearGradient>
<linearGradient id="paint14_linear_1634_24154" x1="27.3417" y1="90.838" x2="24.5581" y2="20.7807" gradientUnits="userSpaceOnUse">
<stop stop-color="#09005D"/>
<stop offset="1" stop-color="#1A0F91"/>
</linearGradient>
<linearGradient id="paint15_linear_1634_24154" x1="33.5444" y1="140.545" x2="10.3752" y2="165.747" gradientUnits="userSpaceOnUse">
<stop stop-color="#4042E2"/>
<stop offset="1" stop-color="#4F52FF"/>
</linearGradient>
<linearGradient id="paint16_linear_1634_24154" x1="26.0234" y1="142.418" x2="28.0823" y2="142.418" gradientUnits="userSpaceOnUse">
<stop stop-color="#FF928E"/>
<stop offset="1" stop-color="#FEB3B1"/>
</linearGradient>
<linearGradient id="paint17_linear_1634_24154" x1="21.1416" y1="126.684" x2="27.9471" y2="126.684" gradientUnits="userSpaceOnUse">
<stop stop-color="#09005D"/>
<stop offset="1" stop-color="#1A0F91"/>
</linearGradient>
<linearGradient id="paint18_linear_1634_24154" x1="28.3474" y1="135.769" x2="5.17825" y2="160.97" gradientUnits="userSpaceOnUse">
<stop stop-color="#4042E2"/>
<stop offset="1" stop-color="#4F52FF"/>
</linearGradient>
<linearGradient id="paint19_linear_1634_24154" x1="18.6055" y1="142.312" x2="20.382" y2="142.312" gradientUnits="userSpaceOnUse">
<stop stop-color="#FF928E"/>
<stop offset="1" stop-color="#FEB3B1"/>
</linearGradient>
<linearGradient id="paint20_linear_1634_24154" x1="16.6906" y1="126.455" x2="26.3521" y2="126.455" gradientUnits="userSpaceOnUse">
<stop stop-color="#09005D"/>
<stop offset="1" stop-color="#1A0F91"/>
</linearGradient>
<linearGradient id="paint21_linear_1634_24154" x1="47.7579" y1="75.3619" x2="33.9039" y2="96.8888" gradientUnits="userSpaceOnUse">
<stop stop-color="#FF928E"/>
<stop offset="1" stop-color="#FEB3B1"/>
</linearGradient>
<linearGradient id="paint22_linear_1634_24154" x1="413.176" y1="651.346" x2="427.03" y2="672.873" gradientUnits="userSpaceOnUse">
<stop stop-color="#FF928E"/>
<stop offset="1" stop-color="#FEB3B1"/>
</linearGradient>
<linearGradient id="paint23_linear_1634_24154" x1="47.5983" y1="70.536" x2="44.2947" y2="84.6031" gradientUnits="userSpaceOnUse">
<stop stop-color="#FF928E"/>
<stop offset="1" stop-color="#FEB3B1"/>
</linearGradient>
<linearGradient id="paint24_linear_1634_24154" x1="11.4838" y1="103.615" x2="24.79" y2="103.615" gradientUnits="userSpaceOnUse">
<stop stop-color="#FF928E"/>
<stop offset="1" stop-color="#FEB3B1"/>
</linearGradient>
<linearGradient id="paint25_linear_1634_24154" x1="33.3964" y1="89.3542" x2="31.8384" y2="96.1959" gradientUnits="userSpaceOnUse">
<stop stop-color="#4042E2"/>
<stop offset="1" stop-color="#4F52FF"/>
</linearGradient>
<linearGradient id="paint26_linear_1634_24154" x1="32.5806" y1="92.227" x2="31.8357" y2="96.6987" gradientUnits="userSpaceOnUse">
<stop stop-color="#4042E2"/>
<stop offset="1" stop-color="#4F52FF"/>
</linearGradient>
<linearGradient id="paint27_linear_1634_24154" x1="23.8046" y1="102.222" x2="27.9502" y2="102.222" gradientUnits="userSpaceOnUse">
<stop stop-color="#FF928E"/>
<stop offset="1" stop-color="#FEB3B1"/>
</linearGradient>
<linearGradient id="paint28_linear_1634_24154" x1="25.3206" y1="86.0837" x2="22.5498" y2="97.38" gradientUnits="userSpaceOnUse">
<stop stop-color="#FF928E"/>
<stop offset="1" stop-color="#FEB3B1"/>
</linearGradient>
<linearGradient id="paint29_linear_1634_24154" x1="24.6078" y1="76.9167" x2="25.9272" y2="85.5275" gradientUnits="userSpaceOnUse">
<stop stop-color="#FF928E"/>
<stop offset="1" stop-color="#FEB3B1"/>
</linearGradient>
<linearGradient id="paint30_linear_1634_24154" x1="19.3281" y1="78.7762" x2="26.8002" y2="84.6786" gradientUnits="userSpaceOnUse">
<stop stop-color="#4042E2"/>
<stop offset="1" stop-color="#4F52FF"/>
</linearGradient>
<linearGradient id="paint31_linear_1634_24154" x1="22.6795" y1="77.2114" x2="23.9978" y2="85.8222" gradientUnits="userSpaceOnUse">
<stop stop-color="#FF928E"/>
<stop offset="1" stop-color="#FEB3B1"/>
</linearGradient>
<linearGradient id="paint32_linear_1634_24154" x1="154.695" y1="64.7301" x2="169.843" y2="64.7301" gradientUnits="userSpaceOnUse">
<stop stop-color="#DAE3FE"/>
<stop offset="1" stop-color="#E9EFFD"/>
</linearGradient>
<linearGradient id="paint33_linear_1634_24154" x1="159.898" y1="64.9266" x2="165.988" y2="64.9266" gradientUnits="userSpaceOnUse">
<stop stop-color="#DAE3FE"/>
<stop offset="1" stop-color="#E9EFFD"/>
</linearGradient>
<linearGradient id="paint34_linear_1634_24154" x1="192.293" y1="12.4628" x2="217.156" y2="87.0494" gradientUnits="userSpaceOnUse">
<stop stop-color="#FE7062"/>
<stop offset="1" stop-color="#FF928E"/>
</linearGradient>
<clipPath id="clip0_1634_24154">
<rect width="235.301" height="147.084" fill="white"/>
</clipPath>
</defs>
</svg>
